STARTFONT 2.3
FONT -FontForge-Henny Penny-Book-R-Normal--24-240-72-72-P-137-ISO10646-1
SIZE 24 72 72  4
FONTBOUNDINGBOX 34 43 -4 -15
COMMENT "Generated by fontforge, http://fontforge.sourceforge.net"
COMMENT "Copyright (c) 2012, Brownfox (gayaneh.b@gmail.com), with Reserved Font Name "Henny Penny""
STARTPROPERTIES 40
FOUNDRY "FontForge"
FAMILY_NAME "Henny Penny"
WEIGHT_NAME "Book"
SLANT "R"
SETWIDTH_NAME "Normal"
ADD_STYLE_NAME ""
PIXEL_SIZE 24
POINT_SIZE 240
RESOLUTION_X 72
RESOLUTION_Y 72
SPACING "P"
AVERAGE_WIDTH 137
CHARSET_REGISTRY "ISO10646"
CHARSET_ENCODING "1"
FONTNAME_REGISTRY ""
CHARSET_COLLECTIONS "ISO10646-1"
BITS_PER_PIXEL 4
FONT_NAME "HennyPenny-Regular"
FACE_NAME "Henny Penny"
COPYRIGHT "Copyright (c) 2012, Brownfox (gayaneh.b@gmail.com), with Reserved Font Name "Henny Penny""
FONT_VERSION "1.001"
FONT_ASCENT 19
FONT_DESCENT 5
UNDERLINE_POSITION -2
UNDERLINE_THICKNESS 2
X_HEIGHT 14
CAP_HEIGHT 17
RAW_ASCENT 799
RAW_DESCENT 200
NORM_SPACE 6
RELATIVE_WEIGHT 40
RELATIVE_SETWIDTH 50
SUPERSCRIPT_X 0
SUPERSCRIPT_Y 8
SUPERSCRIPT_SIZE 14
SUBSCRIPT_X 0
SUBSCRIPT_Y 1
SUBSCRIPT_SIZE 14
AVG_LOWERCASE_WIDTH 123
AVG_UPPERCASE_WIDTH 172
ENDPROPERTIES
CHARS 233
STARTCHAR space
ENCODING 32
SWIDTH 270 0
DWIDTH 6 0
BBX 1 1 0 0
BITMAP
00
ENDCHAR
STARTCHAR exclam
ENCODING 33
SWIDTH 249 0
DWIDTH 6 0
BBX 4 24 1 -1
BITMAP
4EC2
AFF8
BFFA
9FFA
7FFA
5FF9
2FF8
0FF7
0DF6
0BF5
0AF3
08F2
07F0
06D0
06B0
0590
0560
0420
0000
0000
0000
4EC1
9FF4
4EC1
ENDCHAR
STARTCHAR quotedbl
ENCODING 34
SWIDTH 292 0
DWIDTH 7 0
BBX 5 8 1 12
BITMAP
9A0A90
CD0DC0
AD0DB0
8D0CA0
6C0C90
4C0A70
1B0950
060620
ENDCHAR
STARTCHAR numbersign
ENCODING 35
SWIDTH 1030 0
DWIDTH 25 0
BBX 23 28 1 -8
BITMAP
000000000000200000000000
000000000000B00000000000
000000000003900000000000
000000000009300510000000
00000000001B000C00000000
000000000066006700000000
0000000000B100C100000000
2432211005A0069000000000
467789ABEFEAAFA555443300
000000008C109B2122457830
00000000B400E20000000000
00000002C005A00000000000
00000008700C300000000000
0000001E104C002579700000
000013BE8AEEA98642000000
5BCEEEFB6AD1000000000000
242008D00B60000000000000
00001E702E10000000000000
00007E109800000000000000
0000D901E200000000000000
0005F207B000000000000000
000BA00D5000000000000000
000E305D0000000000000000
000200B70000000000000000
000002F10000000000000000
000009A00000000000000000
00000D300000000000000000
000003000000000000000000
ENDCHAR
STARTCHAR dollar
ENCODING 36
SWIDTH 799 0
DWIDTH 19 0
BBX 15 27 2 -5
BITMAP
0000000000500000
0000000004700030
0000000006400840
0000029CEFCACD00
00003EF71A7FF800
0000CFC00B06F500
0001FFB02900E200
0003FFF15600B000
0001FFF983007000
0000BFFFE0000000
00004FFFF4000000
000008FFFE300000
000000BFFFD10000
0000000CFFFB0000
0000000BCFFF4000
0060000B2EFFC000
0090002904FFF200
00C0006500CFF400
02F00092007FF400
06F400B0005FF200
0BF901A0007FD000
2EDF447000DF5000
7308EC413BF80000
20003EEFDA400000
00000B0000000000
0000380000000000
0000630000000000
ENDCHAR
STARTCHAR percent
ENCODING 37
SWIDTH 789 0
DWIDTH 19 0
BBX 19 22 0 0
BITMAP
0019DFD7000000046000
01DE318FA000001C1000
07F9000DF30000B50000
0AF90009F60007A00000
0AFB0008F6004D100000
07FE100AF301D4000000
00CFA14E900B80000000
0019DEC7007C00000000
0000000003E200000000
000000001D5000000000
00000000A90000000000
00000007C00000000000
0000003E2006CEEA2000
000001D5009F812CF400
0000099004FC0004FD00
00005C0009F70000FF30
0002D2000BF50000FF40
000B50000BF60001FF20
0089000007FA0005FC00
04C1000001DF613DE300
1D3000000029DFD92000
66000000000000000000
ENDCHAR
STARTCHAR ampersand
ENCODING 38
SWIDTH 773 0
DWIDTH 19 0
BBX 18 23 0 -2
BITMAP
000006CFD800000000
00008D415F60000000
0003F2000DA0000000
0008D0001F90000000
000AC0009F30000000
000AD005FA00000000
0009F25FD100000000
0007FBFE3000000000
0003FFF50000004B00
0007FF80000007FF00
005FFFB00027DFFF00
01EFEFF4078412ED00
08FF79FD000000AC00
0EFF11EF800000A800
1FFE007FF40000D400
3FFE000BFD1003D000
1FFF1002EFC1096000
0DFF60005FFC6B0000
05FFD10008FFF40007
008FFD4113EFFF8259
00039DFEC94AFFFFF2
0000000000008FFF80
00000000000004CB00
ENDCHAR
STARTCHAR quotesingle
ENCODING 39
SWIDTH 174 0
DWIDTH 4 0
BBX 2 8 1 11
BITMAP
8B
BF
AF
8E
6D
3D
0B
05
ENDCHAR
STARTCHAR parenleft
ENCODING 40
SWIDTH 431 0
DWIDTH 10 0
BBX 11 34 0 -10
BITMAP
000007000000
000077000000
0002D1000000
000B80000000
004F30000000
00AD00000000
01F900000000
06F600000000
0BF400000000
0FF200000000
3FF000000000
6FE000000000
8FD000000000
AFC000000000
AFC000000000
BFC000000000
AFD000000000
9FE000000000
8FF100000000
6FF500000000
2FF800000000
0EFB00000000
09FF10000000
04FF60000000
00DFB0000000
006FF2000000
000DF9000000
0004FF200000
00009FA00000
00001DF40000
000002ED1000
0000004EA000
00000003E800
000000001A30
ENDCHAR
STARTCHAR parenright
ENCODING 41
SWIDTH 443 0
DWIDTH 11 0
BBX 11 24 0 -6
BITMAP
05C710000000
004EE5000000
0002EF900000
00003EF90000
000006FF6000
000000CFE100
0000005FF700
0000000EFD00
0000000AFF10
00000007FF40
00000005FF60
00000004FF60
00000005FF50
00000006FF30
00000009FE00
0000000CF900
0000002FF400
0000009FB000
000003FE2000
00001DF40000
0001CF500000
004DD3000000
3BE700000000
440000000000
ENDCHAR
STARTCHAR asterisk
ENCODING 42
SWIDTH 490 0
DWIDTH 12 0
BBX 10 11 1 11
BITMAP
0001E60000
0002FB0000
0000DC03D5
00008D0DE2
9C832E6D30
8EFFCE9100
00017DC200
002DC1CE40
00DD204FE2
00410009F3
0000000010
ENDCHAR
STARTCHAR plus
ENCODING 43
SWIDTH 440 0
DWIDTH 11 0
BBX 9 13 1 1
BITMAP
0000630000
0000830000
0000730000
0000730000
0000830000
0011B53520
AFEEFDA810
0000960000
0000770000
0000580000
00003A0000
00001C0000
0000050000
ENDCHAR
STARTCHAR comma
ENCODING 44
SWIDTH 251 0
DWIDTH 6 0
BBX 4 8 1 -4
BITMAP
4ED3
BFFB
9FFC
1CFA
02F6
01D1
0850
2800
ENDCHAR
STARTCHAR hyphen
ENCODING 45
SWIDTH 436 0
DWIDTH 10 0
BBX 9 2 1 5
BITMAP
3310012300
6BDFFFEC20
ENDCHAR
STARTCHAR period
ENCODING 46
SWIDTH 238 0
DWIDTH 6 0
BBX 4 4 1 -1
BITMAP
3DC2
BFF7
BFF7
4EC1
ENDCHAR
STARTCHAR slash
ENCODING 47
SWIDTH 690 0
DWIDTH 17 0
BBX 17 24 0 -1
BITMAP
000000000000000110
000000000000000A20
000000000000007900
00000000000003D100
0000000000001D4000
000000000000990000
000000000005D10000
00000000002E300000
0000000000C7000000
0000000008B0000000
000000004E20000000
00000001D500000000
0000000A9000000000
0000006C0000000000
000002E20000000000
00000C600000000000
00008A000000000000
0004D1000000000000
001D30000000000000
00A700000000000000
05B000000000000000
1D2000000000000000
950000000000000000
100000000000000000
ENDCHAR
STARTCHAR zero
ENCODING 48
SWIDTH 723 0
DWIDTH 17 0
BBX 18 17 0 2
BITMAP
000017BEFEC8200000
0006EC51026DF80000
008FA0000001CFA000
05FE100000001EF700
0DF80000000008FF20
4FF30000000003FF70
8FF00000000000FFC0
AFF00000000000DFF0
BFF00000000000CFF1
AFF10000000000BFF1
7FF40000000000CFE0
3FF80000000000EFA0
0CFE1000000003FF40
03FF8000000009FB00
005FF60000004FD100
0003DFB51028FB1000
000005ADEED9400000
ENDCHAR
STARTCHAR one
ENCODING 49
SWIDTH 505 0
DWIDTH 12 0
BBX 12 23 0 -2
BITMAP
000006300000
00000B600000
00003F900000
0000CFB00000
0008FFD00000
008FFFF10000
1AB5BFF30000
B5003FF50000
00000EF80000
00000CFA0000
000009FD0000
000007FF1000
000006FF3000
000004FF6000
000003FF8000
000002FFB000
000001FFE000
000000FFF500
000002FFFD20
00000AFFFFF9
0004CEA62101
00AD71000000
004000000000
ENDCHAR
STARTCHAR two
ENCODING 50
SWIDTH 534 0
DWIDTH 13 0
BBX 13 21 0 -2
BITMAP
0007CEEC700000
01CFFFFFFB0000
0BC302AFFF7000
3C00000BFFD000
85000004FFF000
B0000002FFE000
A0000003FFA000
70000005FF4000
0000000AFB0000
0000002FE20000
000000BF400000
000007F5000000
00006E50000000
0007D300000000
01AA1000000000
3DF40000000020
05CFC500000270
0005DFE8413B10
000007FFFFF500
0000002CFFB000
000000008D2000
ENDCHAR
STARTCHAR three
ENCODING 51
SWIDTH 511 0
DWIDTH 12 0
BBX 13 20 0 -2
BITMAP
08852000000000
0DFFFFEDCA0000
0DFFFFFFF90000
0CD41012D10000
0C200007300000
07000036000000
00000170000000
00000A30000000
00002EFD600000
0000019FFC2000
00000005FFD100
500000008FF900
900000000EFE10
B00000000AFF30
A300000009FF30
6B0000000CFF20
1E7000004FFC00
07FA3026EFF400
008FFFFFFF7000
0004AEFDA30000
ENDCHAR
STARTCHAR four
ENCODING 52
SWIDTH 712 0
DWIDTH 17 0
BBX 17 24 0 -3
BITMAP
000000000260000000
000000000C50000000
000000008F10000000
00000005FE00000000
0000004EFF00000000
00000393FF20000000
00002900EF40000000
0002A100CF70000000
002B10009FB0000000
02D300007FE0000000
2E8000004FF3000000
AFE710002FF6000000
04AFE9300FFA000000
00017DFC6DFE000310
0000005CFFFF955A00
000000004BFFFFF300
0000000004FFDFB000
0000000001FFA12000
0000000000DFD00000
0000000000BFF30000
0000000001DFF90000
000000008CDEFF5000
00000000000026B930
000000000000000250
ENDCHAR
STARTCHAR five
ENCODING 53
SWIDTH 757 0
DWIDTH 18 0
BBX 19 23 0 -2
BITMAP
00000000000000000210
0000000008C500000B10
000000002FFFC4007B00
0000000097DFFFDBF500
000000029019FFFFD000
0000000910005EFF6000
00000036000002AC0000
00000080000000000000
000003D8740000000000
000007FFFFE800000000
00000016CFFFC1000000
0000000005EFFC000000
09000000004FFF500000
57000000000BFF900000
920000000007FFA00000
B00000000006FF900000
C00000000007FF700000
C00000000009FF300000
93000000000DFD000000
4A000000005FF5000000
0A70000003EF80000000
01AB41027EF700000000
0004ADFEC82000000000
ENDCHAR
STARTCHAR six
ENCODING 54
SWIDTH 598 0
DWIDTH 14 0
BBX 15 19 0 0
BITMAP
000017CEED820000
0004EFA2027E5000
004FF8000003D300
01EFD00000004B00
08FF600000000A00
1EFF100000000000
4FFD06CEEC810000
7FFCB92127EE4000
9FFF8000004FE200
AFFE1000000AF800
9FFA00000005FD00
8FF800000003FF10
6FF800000002FF10
2FF900000002FF00
0BFC00000004FB00
03FF30000009F600
007FC100002FB000
0005EC5115DC1000
000027CEEC600000
ENDCHAR
STARTCHAR seven
ENCODING 55
SWIDTH 507 0
DWIDTH 12 0
BBX 13 20 0 -2
BITMAP
54211001358C10
DFFFFFFFFFF600
AFFFFFFFFFC000
8E20258DFF4000
770000005B0000
64000000740000
51000001B00000
00000008600000
0000001E100000
00000099000000
000002F4000000
000009E0000000
00002FB0000000
00008F80000000
0000EF50000000
0005FF30000000
000BFF20000000
002FFF10000000
006FEC00000000
00330000000000
ENDCHAR
STARTCHAR eight
ENCODING 56
SWIDTH 476 0
DWIDTH 11 0
BBX 12 20 0 -1
BITMAP
0007CFEB3000
00CFE413C200
07FF70003900
0CFF40000B00
0EFF60001A00
0DFFC0007400
09FFFA048000
02EFFFE80000
004EFFFD3000
0009FFFFF400
01BC67CFFE20
0BC10008FFA0
5F300000AFF1
AC0000002FF3
CA0000000CF4
CA0000000BF2
9E0000000DD0
3F8000004F60
07FA3026E800
004ADFEB4000
ENDCHAR
STARTCHAR nine
ENCODING 57
SWIDTH 601 0
DWIDTH 14 0
BBX 15 18 0 0
BITMAP
0005BEFEB7100000
01BF8203BFE50000
0BF800000BFF5000
4FF1000002FFE100
9FD0000000BFF800
BFC00000007FFD00
BFC00000006FFF10
9FE00000006FFF20
4FF50000007FFF20
0BFD100000DFFF10
01CFD6102AFFFE00
0006BEFEB7AFFB00
0000000000BFF700
0000000000EFE100
0000000006FF6000
0B2000003EF90000
05E72027EF700000
0029DFEC82000000
ENDCHAR
STARTCHAR colon
ENCODING 58
SWIDTH 246 0
DWIDTH 6 0
BBX 4 12 1 -1
BITMAP
4ED2
BFF8
BFF7
4EC1
0000
0000
0000
0000
1CE4
6FFA
6FF9
1CD3
ENDCHAR
STARTCHAR semicolon
ENCODING 59
SWIDTH 266 0
DWIDTH 6 0
BBX 5 16 1 -5
BITMAP
0AE900
4FFF10
4FFF10
0BE700
000000
000000
000000
000000
000000
3DE500
9FFD00
6FFD00
09F800
04E100
0B4000
740000
ENDCHAR
STARTCHAR less
ENCODING 60
SWIDTH 522 0
DWIDTH 13 0
BBX 11 12 1 1
BITMAP
000000005900
00000019B100
000004D70000
00019C200000
006D60000000
3CB100000000
5EC300000000
017EA2000000
00018EA20000
000002AF8100
00000003AD20
000000000100
ENDCHAR
STARTCHAR equal
ENCODING 61
SWIDTH 655 0
DWIDTH 16 0
BBX 14 5 1 5
BITMAP
00024689BCDEF6
7DDCA976432100
00000000000000
00000000000000
9FFEEDDCCCB800
ENDCHAR
STARTCHAR greater
ENCODING 62
SWIDTH 533 0
DWIDTH 13 0
BBX 11 13 1 1
BITMAP
200000000000
4B3000000000
02BA10000000
0006D6000000
00001AC30000
0000004DA100
00000001AE20
00000001CA00
0000003D8000
000007D40000
0002B9100000
005C40000000
007100000000
ENDCHAR
STARTCHAR question
ENCODING 63
SWIDTH 564 0
DWIDTH 14 0
BBX 13 22 0 -2
BITMAP
00028DFEC82000
005E6204CFE500
04F600001DFF20
0CF2000007FF80
3FF4000005FFB0
6FFC000005FFC0
7FFF800008FFA0
6FFFF1001EFF50
2FFFF2009FFB00
05DE8007FFC100
0000007FF90000
000008FC300000
00009E60000000
0007B100000000
001D1000000000
00590000000000
004C1700000000
000AE700000000
00000000000000
0005EA00000000
0008FF10000000
0003DC00000000
ENDCHAR
STARTCHAR at
ENCODING 64
SWIDTH 898 0
DWIDTH 22 0
BBX 20 24 1 -7
BITMAP
00000016ADEEDB610000
000006DA520125BE5000
0000AB2000000004E600
000B8000000000002E30
008900000000001006A0
02C000000000DF9000D1
0950005BEEA3FF900095
1D0009F9117EFF800067
48006FB00009FF600048
8500DF500003FF500049
A204FF200001FF500048
B106FF200000FF400056
C007FF300001FF400084
B106FF600005EF4000C0
A203FFC0000A8F700490
8400CFFA218A1ED13C10
57003EFFFFD103CFB200
2C0002AEEA1000000000
0B30000001CE60000000
04B0000005FFF1000000
00B7000000AFF2000000
001D7000000ED0000000
0002CC52027F40000000
000006BEFD9300000000
ENDCHAR
STARTCHAR A
ENCODING 65
SWIDTH 784 0
DWIDTH 19 0
BBX 20 22 0 -2
BITMAP
000000002B4000000000
0000025AFFA000000000
0000CECFFFF100000000
00000009DFF500000000
0000000B2EFB00000000
0000001B0AFF10000000
0000005706FF60000000
000000A202FFB0000000
000000C000CFF1000000
00000580009FF6000000
00000AEB726FFB000000
00001E149EFFFF100000
00006A00006FFF600000
0000B5000008FFC00000
0002E0000002FFF20000
0008A0000000CFF70000
005F600000007FFD0000
DFFF900000003FFF3000
0259EC0000000DFFA000
0000140000000AFFF820
0000000000016EFFFFF2
00000000001DA6310000
ENDCHAR
STARTCHAR B
ENCODING 66
SWIDTH 685 0
DWIDTH 16 0
BBX 17 24 0 -3
BITMAP
1100137ADFEB400000
39EFFD2026EFF60000
002EFD00005FFE0000
0008FE00000EFF1000
0004FF00000CFF0000
0003FF10000EFA0000
0001FF20003FD20000
0000FF3001CB200000
0000FF537C60000000
0000EFEBACFD710000
0000EF60002CFD3000
0000EF700001DFE100
0000EF8000006FF800
0000EF9000001FFD00
0000EFA000000DFF10
0000EFB000000DFF10
0000FFC000000DFF00
0000FFE000001FFC00
0001FFF000005FF600
0003FFF40000CFC000
0007FFFD303BFB1000
004EFFEFFFDA500000
08D720000000000000
B70000000000000000
ENDCHAR
STARTCHAR C
ENCODING 67
SWIDTH 742 0
DWIDTH 18 0
BBX 18 22 0 -2
BITMAP
000000000000000800
000000000000000B00
000000000000003C00
0000049CEFEDBAED00
0003CFD620138EFE00
005FFB10000002CF20
03FFE1000000001C70
0BFF70000000000290
3FFF20000000000000
7FFD00000000000000
AFFB00000000000000
CFFB00000000000000
DFFB00000000000000
CFFC00000000000007
BFFE00000000000018
8FFF30000000000047
3FFF80000000000073
0BFFE10000000000B0
02EFFB000000000760
003EFFA10000005A00
0001AFFD72014A9000
0000037CDFED930000
ENDCHAR
STARTCHAR D
ENCODING 68
SWIDTH 726 0
DWIDTH 17 0
BBX 17 20 0 -4
BITMAP
2765679BDEFEA40000
05DFFF61026EFFB100
002FFB000001DFFB00
000CFA0000002FFF50
000AFA0000000BFFA0
0008FA00000006FFE0
0007FB00000004FFF0
0006FC00000004FFF0
0006FD00000005FFD0
0006FE00000007FFB0
0006FF1000000BFF50
0006FF3000003FFC00
0007FF800001CFC100
0008FFF6114DE81000
000CFFFFFC95000000
002FFFB51000000000
00AF92000000000000
06D300000000000000
5A1000000000000000
600000000000000000
ENDCHAR
STARTCHAR E
ENCODING 69
SWIDTH 557 0
DWIDTH 13 0
BBX 14 22 0 -3
BITMAP
454334579ADE10
1BFFFA42102E00
01FFF600000A00
00BFF600000700
008FF700000000
006FF800000000
004FF900000000
002FF900310000
000FFA00900000
000DFFEEE00000
000CFB14D00000
000AFC00A00000
0009FD00800000
0007FE00000000
0006FF00000000
0004FF10000000
0003FF20000002
0002FF30000035
0001FF500000A4
0004FF800018F2
6EEFFFFDCDFFF0
00011234679A60
ENDCHAR
STARTCHAR F
ENCODING 70
SWIDTH 533 0
DWIDTH 13 0
BBX 14 21 0 -1
BITMAP
00000000027BE3
00000369DFFFF3
7BCDFFB4101CF1
38EFFF500006D0
004FFF400006A0
000EFF50000760
000CFF50000810
0009FF60260100
0007FF60650000
0005FF73D30000
0003FFFFF20000
0001FF72C20000
0000EF80730000
0000DF80630000
0000BF90210000
0000AF90000000
00009FA0000000
00009FA0000000
0000AFC0000000
0026FFF3000000
3FFDBBCEA00000
ENDCHAR
STARTCHAR G
ENCODING 71
SWIDTH 750 0
DWIDTH 18 0
BBX 19 18 0 -1
BITMAP
00000000000000000910
00000000000000006800
0000049DEED93005D100
0002CFD62025CEDF6000
005FFA1000000BFD0000
03FFC000000004F70000
0DFF5000000002F10000
4FFE0000000003A00000
9FFB0000000001100000
CFF90000000000003100
DFF90000001247AEB100
CFFA00003EDDFFFC0000
AFFC000000003FFA0000
6FFF100000000EFA0000
1DFF800000000FFC0000
04FFF40000006FFE0000
004EFF830139B4391000
00017BEFEC9300000000
ENDCHAR
STARTCHAR H
ENCODING 72
SWIDTH 743 0
DWIDTH 18 0
BBX 18 25 0 -4
BITMAP
2BA510000000000000
007FFFFFEA00000000
000EFF700100000023
000CFF000001359DB6
000BFE0004FFFFFD00
000BFE0000008FFA00
000BFE0000003FF900
000AFE0000001FF900
000AFE0000000EF800
000AFE0000000EF800
000AFE0000000EF700
000AFF1001249FF700
000AFFEDEECBDFF700
000BFF7200002FF600
000BFF0000000EF600
000BFF0000000DF600
000BFF0000000BF600
000CFF1000000AF600
000CFF10000009F600
000DFF10000009F600
000DFF1000014EFB10
000EFF1000DFFFFFD5
004FFF300033200122
5CFFFFD20000000000
752102530000000000
ENDCHAR
STARTCHAR I
ENCODING 73
SWIDTH 438 0
DWIDTH 11 0
BBX 14 25 -2 -5
BITMAP
03BA98889BCEFB
0025CFFFFE5100
00001EFFF30000
00000BFFC00000
00000AFF900000
000009FF600000
000009FF400000
000009FF300000
000009FF100000
000009FE000000
000009FD000000
000008FB000000
000009FA000000
000009F9000000
000009F8000000
000009F7000000
000009F6000000
000009F5000000
000009F5000000
00000AF4000000
00000BF5000000
00001EFB100000
0002CFFFFF4000
04AD8421000000
17300000000000
ENDCHAR
STARTCHAR J
ENCODING 74
SWIDTH 628 0
DWIDTH 15 0
BBX 17 28 0 -6
BITMAP
000000000000048D20
00000001247AEE7100
000007FFFFFFD10000
00000003DFFF700000
000000004FFF400000
000000000FFF300000
000000000CFF300000
000000000AFF300000
0000000009FF300000
0000000008FF200000
0000000007FF200000
0000000006FF100000
0000000006FF000000
0000000006FE000000
0000000006FD000000
0000000007FB000000
0000000008FA000000
0000000009F8000000
000000000BF5000000
000000000DF2000000
000000002FD0000000
07DE90006F80000000
6FFFF600AF30000000
CFFFF801FA00000000
DFFFF309F300000000
A913205F6000000000
3C3028F80000000000
04CFEA300000000000
ENDCHAR
STARTCHAR K
ENCODING 75
SWIDTH 866 0
DWIDTH 21 0
BBX 22 22 0 -2
BITMAP
0000000100000000000000
011247CA00200000000000
AFFFFF50008D7310000000
01BFFD00000BFFFFF40000
005FFB000008E610000000
003FFB00002C2000000000
002FFB0001B20000000000
001FFB001B200000000000
000FFC01B9000000000000
000EFC0BFE000000000000
000CFD9CFF500000000000
000BFF35FFD00000000000
000AFD00DFF60000000000
0009FD006FFE1000001B20
0009FD000CFFB0000004C0
0008FD0002EFF9000000C2
0007FE00005FFF900000D4
0006FF000006FFFD5117F1
0006FF1000004DFFFFFF90
001BFF600000007CEEC600
00CEFFE500000000000000
0000026B70000000000000
ENDCHAR
STARTCHAR L
ENCODING 76
SWIDTH 660 0
DWIDTH 16 0
BBX 16 18 0 0
BITMAP
5A74200000000000
158EFFEDEFB00000
0004FFFF61000000
0000EFFD00000000
0000CFFA00000000
0000CFF800000000
0000BFF700000000
0000BFF500000000
0000BFF400000000
0000AFF200000000
0000AFF100003500
0000AFF000001A00
0000AFE000000B10
0000BFE000000B50
0000CFE000000DB0
0001FFF510029FF2
058DFFFFFFFFFFF5
0897532211000000
ENDCHAR
STARTCHAR M
ENCODING 77
SWIDTH 1089 0
DWIDTH 26 0
BBX 27 20 0 -2
BITMAP
0000000000000000000000011000
00000000000000000000DFFF8000
00000000000000000006FD630000
0000752100000000000CF4000000
00006DFFFA000000004FF3000000
000001DDFF90000000BFF4000000
00000069AFF5000003AFF6000000
0000004A2EFE2000081FF9000000
0000002B08FFC000350BFC000000
0000001C01EFF8008008FF000000
0000001C006FFF546004FF300000
0000000C000CFFEC0001FF700000
0000001B0004FFF60000DFB00000
000000290000AFE00000AFF10000
0000004600002F6000007FF60000
000000710000040000005FFD0000
7EA100800000000000005FFFB300
EFFA2830000000000003DFFFFFB0
CFFFF7000000000002BB74200100
3BED600000000000000000000000
ENDCHAR
STARTCHAR N
ENCODING 78
SWIDTH 799 0
DWIDTH 19 0
BBX 20 23 0 -5
BITMAP
00013200000000001471
DFFFFF600000EEEEFD91
014FFFF6000003BF9000
000BFFFF5000002F3000
00098CFFE400000F1000
000862EFFE30000D0000
0008604FFFE2000C0000
00076007FFFD100C0000
00076000BFFFC10C0000
000660001DFFFB3C0000
0006600004FFFFFC0000
00066000007FFFFB0000
00066000000AFFFB0000
000660000001CFFB0000
0006600000002EFA0000
00066000000003F90000
00066000000000470000
00077000000000000000
00088000000000000000
000CA000000000000000
019FF300000000000000
AEEFFE71000000000000
000026A6000000000000
ENDCHAR
STARTCHAR O
ENCODING 79
SWIDTH 747 0
DWIDTH 18 0
BBX 18 18 0 1
BITMAP
000017BEFEC8400000
0005ED51138FFB2000
007FC1000004FFE300
04FF200000007FFE20
0DFA000000000DFFA0
5FF60000000007FFF2
9FF30000000002FFF7
BFF20000000000EFFA
DFF20000000000CFFB
CFF30000000000BFFB
BFF50000000000AFFA
8FF80000000000AFF7
4FFC0000000000CFF2
0DFF3000000001FFB0
04FFC000000008FE20
007FF90000003FF500
0005EFC51027FD3000
000016ADEFDA600000
ENDCHAR
STARTCHAR P
ENCODING 80
SWIDTH 623 0
DWIDTH 15 0
BBX 15 21 0 -3
BITMAP
00000147BEFDA200
DFEEFFFE413DFE30
013BFFF70004FFA0
0000DFF30000EFD0
00009FF10000DFE0
00007FF00000EFC0
00007FF00002FF80
00006FF00008FF20
00007FF2017FF400
00007FFDEFD92000
00007FF000000000
00008FF000000000
00009FF000000000
0000AFF000000000
0000BFF100000000
0000CFF200000000
0000EFF400000000
0001FFF600000000
0006FFFC00000000
003EFFFF91000000
398420137AA30000
ENDCHAR
STARTCHAR Q
ENCODING 81
SWIDTH 804 0
DWIDTH 19 0
BBX 28 30 0 -11
BITMAP
0000027BDFDC8300000000000000
00008E72015BFFB2000000000000
001CE20000006FFE300000000000
00BF4000000007FFE20000000000
07FB0000000000AFFB0000000000
1EF500000000003FFF4000000000
5FF200000000000BFF9000000000
9FF0000000000007FFC000000000
BFE0000000000003FFE000000000
DFE0000000000002FFE000000000
DFF0000000000000FFD000000000
CFF3000000000000FFC000000000
9FF6000000000001FF9000000000
6FFB0000007DFC63FF6000000000
1EFF200006912BFDFE1000000000
08FFA0000B0001DFF80000000000
01DFF6001A00008FF10000000000
002DFF70290001DFF50000000000
0001AFFB69026D9EFB0000000000
0000039CEFEB820CFF1000000000
0000000000000009FF6000000000
0000000000000006FFB000000000
0000000000000003FFF100000000
0000000000000000FFF600000006
0000000000000000BFFC00000036
00000000000000006FFF40000073
00000000000000001EFFD10001C0
000000000000000007FFFC313C60
000000000000000000AFFFFFFA00
00000000000000000006CEEC6000
ENDCHAR
STARTCHAR R
ENCODING 82
SWIDTH 869 0
DWIDTH 21 0
BBX 22 18 0 -1
BITMAP
0001247ADFEB5000000000
DFFFFFF9129FF700000000
03AFFFD0000CFF10000000
000CFF900008FF50000000
0007FF700007FF60000000
0004FF600009FF50000000
0002FF50000DFF10000000
0000FF50008FFA00000000
0000EF615BFFC100000000
0000DFFFFFF90000000000
0000BF605FFA0000000000
0000BF700EFF2000000000
0000AF8007FFA000000043
00009F9001DFF700000028
0000AFB0005FFF70000048
0003EFF20006FFFB5114D5
2EFEEEFD30006EFFFFFFC0
000000258100017CEFD810
ENDCHAR
STARTCHAR S
ENCODING 83
SWIDTH 517 0
DWIDTH 12 0
BBX 14 23 -1 -3
BITMAP
00000000000010
00000000000080
0000018DFC50A0
00002DE512ADA0
00009F80000C80
0000EF60000670
0000FF90000250
0000DFF3000010
00007FFC100000
00001DFFB00000
000004FFF90000
0000007FFF7000
00000009FFF500
00000000BFFE20
120000002EFFA0
1A00000006FFF2
0C20000001EFF6
09800000009FF8
06E10000006FF8
04FA0000007FF4
04FF700000BFD0
05D7BA3129FD20
062004BEFC8100
ENDCHAR
STARTCHAR T
ENCODING 84
SWIDTH 659 0
DWIDTH 16 0
BBX 17 25 0 -4
BITMAP
5EC96421000137BE60
7FFFFEEEFFFFFFFF80
6FC300007F9013AF70
3F4000008F90000D50
0E3000009F90000A20
0B4000009F90000700
07600000AF90000000
02900000BF90000000
00800000CF90000000
00000000CF90000000
00000000DF90000000
00000000EF90000000
00000000FF90000000
00000000FF90000000
00000001FF90000000
00000002FF90000000
00000003FF90000000
00000004FF90000000
00000005FFB0000000
00000008FFE1000000
0000000DFFFB310000
0000009FFFFFFFD000
000008FB6200000000
000099200000000000
000120000000000000
ENDCHAR
STARTCHAR U
ENCODING 85
SWIDTH 690 0
DWIDTH 17 0
BBX 18 18 0 1
BITMAP
000000000410000000
00000038EC10000000
0247AEFE5000000000
DFFFFFF60000000001
02CFFFD008EDBBBC98
004FFF900014BFF200
001FFF7000000CC000
000FFF60000007B000
000FFF50000005A000
000EFF50000004A000
000DFF500000039000
000CFF700000038000
0009FF900000056000
0006FFC00000073000
0001EFF200000B0000
00006FF90000570000
000008FF8116B00000
0000003AEFD8100000
ENDCHAR
STARTCHAR V
ENCODING 86
SWIDTH 798 0
DWIDTH 19 0
BBX 21 19 0 0
BITMAP
0000000002100000000000
00000259B7100000000020
AFEEFFFC000000000005D0
0139FFFC00000000019E30
00006FFF20000025AFE200
00000AFF80006FFFFF4000
000002FFE1000008F80000
0000009FF7000007D00000
0000002FFE10000A600000
00000009FF80000D000000
00000002FFF20048000000
00000000BFFB0091000000
000000005FFF5190000000
000000000DFFEB30000000
0000000007FFFC00000000
0000000001EFF500000000
00000000009FE000000000
00000000002F9000000000
0000000000092000000000
ENDCHAR
STARTCHAR W
ENCODING 87
SWIDTH 1120 0
DWIDTH 27 0
BBX 31 21 -1 -2
BITMAP
00000000000000000000001000000000
00000000000000000000009D95310000
000000000000000000000003BFFFFFB0
0000000100000000000000000DF82000
0000004A00000000000000000EA00000
000018E200000000000000003F200000
0027EFC0000000000000000089000000
6BCFFFE00000012000000000D2000000
0003EFF200000AC000000005A0000000
00008FF700004FF70000000B30000000
00001FFD0000BBFF3000003B00000000
00000BFF400562FFC00000A400000000
000006FFB01B00AFF70002C000000000
000001FFF486004FFF20095000000000
000000BFFEC0000CFFC02D0000000000
0000006FFF500005FFF9B60000000000
0000001FFC000000EFFFE00000000000
0000000AF50000007FFF700000000000
00000004C00000001EFE100000000000
000000001000000008F7000000000000
000000000000000001B0000000000000
ENDCHAR
STARTCHAR X
ENCODING 88
SWIDTH 868 0
DWIDTH 21 0
BBX 21 19 0 -1
BITMAP
000012469DC00000000000
DFFFFFFFFC100010000000
0136BFFFFA000058300000
000006FFFE000003FD9400
0000005FFF600004D31100
00000007FFE1000A200000
00000000BFF90055000000
000000001EFF5290000000
0000000007FFFE20000000
0000000002FFFE00000000
0000000007DEFF50000000
000000003C14FFC0000000
00000001C3008FF6000000
0000000B60000DFE100000
0000009C000003FF900000
00026DF50000009FF40000
2FFFFFF60000015FFE3000
001248DE5009FEEEFFF930
0000000450000000013560
ENDCHAR
STARTCHAR Y
ENCODING 89
SWIDTH 796 0
DWIDTH 19 0
BBX 22 24 0 -3
BITMAP
0000000120000000000000
001247BD50000000000000
9FFFFF800000004C742000
028FFF6000000005EFFFF3
0005FFE200000001D71000
00006FFD10000009500000
000008FFC1000078000000
000000AFFB1005B0000000
0000001DFFC15D10000000
00000003FFFFF400000000
000000007FFF9000000000
000000000DFF3000000000
0000000008FF1000000000
0000000006FF1000000000
0000000005FF1000000000
0000000005FF1000000000
0000000006FF2000000000
0000000007FF3000000000
0000000009FF4000000000
000000000BFF5000000000
000000000EFF7000000000
000000029FFFA000000000
000004EFFFFFF500000000
0000000001359D70000000
ENDCHAR
STARTCHAR Z
ENCODING 90
SWIDTH 627 0
DWIDTH 15 0
BBX 15 21 1 -3
BITMAP
1000000000000000
9B62101247400000
9FFFFFFFFF300000
9E6102FFFD000000
960003FFF7000000
A10007FFF1000000
90000BFFA0000000
70000EFF40000000
00004FFD00000000
00008FF800000000
0000CFF200000000
0001FFB000006000
0005FF6000009000
000AFF1000008300
000EFA0000009700
004FF5000000BB00
009FE0000003FF10
00EF9000004DFF40
04FF51369DFFFF80
08FFFDA742101330
0795100000000000
ENDCHAR
STARTCHAR bracketleft
ENCODING 91
SWIDTH 344 0
DWIDTH 8 0
BBX 8 25 0 -5
BITMAP
009FDA74
00EF8023
02FF2000
04FE0000
06FC0000
08FA0000
09F90000
0BF80000
0DF70000
0FF60000
1FF50000
3FF50000
4FF40000
5FF40000
6FF30000
7FF30000
8FF20000
9FF20000
AFF20000
AFF20000
BFF30000
BFF40000
BFF60000
9FFC2000
19CEFFE7
ENDCHAR
STARTCHAR backslash
ENCODING 92
SWIDTH 347 0
DWIDTH 8 0
BBX 9 27 0 -4
BITMAP
7000000000
9400000000
5900000000
1D00000000
0C30000000
0770000000
03B0000000
00D0000000
00A4000000
0068000000
002C000000
000D200000
0009600000
0004A00000
0001E00000
0000B40000
0000780000
00003D0000
00000D2000
0000097000
000004B000
000001E100
000000B400
0000006900
0000001C00
0000000B10
0000000100
ENDCHAR
STARTCHAR bracketright
ENCODING 93
SWIDTH 334 0
DWIDTH 8 0
BBX 8 23 0 -6
BITMAP
00014710
07BFFF50
0314FF60
0002FF80
0001FF90
0000FFB0
0000FFC0
0000EFE0
0000DFF0
0000DFF1
0000CFF3
0000CFF4
0000BFF5
0000BFF7
0000AFF8
0000AFF9
0000AFFA
0000AFFB
0000BFFC
0000EFE5
001BC500
18B40000
65000000
ENDCHAR
STARTCHAR asciicircum
ENCODING 94
SWIDTH 658 0
DWIDTH 16 0
BBX 14 6 1 13
BITMAP
000003C1000000
00001DFB000000
0001CFFFB10000
002CE88FFD3000
07FA20029FF920
9B400000027CE5
ENDCHAR
STARTCHAR underscore
ENCODING 95
SWIDTH 678 0
DWIDTH 16 0
BBX 14 2 1 -8
BITMAP
135789ABCDEEFD
79876533211100
ENDCHAR
STARTCHAR grave
ENCODING 96
SWIDTH 278 0
DWIDTH 7 0
BBX 5 5 1 18
BITMAP
9C1000
7FB000
0AF600
00BE10
000960
ENDCHAR
STARTCHAR a
ENCODING 97
SWIDTH 527 0
DWIDTH 13 0
BBX 14 17 0 -2
BITMAP
0009EEB4000000
00A713DF400000
03D0005FD00000
06E3002FF40000
06FE500EF80000
03FFE00DFB0000
008E900BFE0000
00000009FF1000
005BEFEEFF4000
0AF92018FF6000
5FC00004FF9000
9FA00002FFB000
8FE5115BEFE001
3FFFFFE4CFF226
04CFEA207FF846
000000002EFFF3
0000000004DE80
ENDCHAR
STARTCHAR b
ENCODING 98
SWIDTH 582 0
DWIDTH 14 0
BBX 16 27 -2 0
BITMAP
0000070000000000
00005A0000000000
0002DB0000000000
037EFB0000000000
CFFFFC0000000000
101CFC0000000000
0006FD0000000000
0004FD0000000000
0003FE0000000000
0002FF0000000000
0002FF0000000000
0001FF1000000000
0000FF2000000000
0000FF3000000000
0000EF4000000000
0000DF505BEEB400
0000DF78412BFF50
0000CFC10001DFE1
0000CF9000008FF6
0000BFB000005FF8
0000BFC000004FF8
0000AFE000005FF7
0000AFF200007FF3
0000AFF60000DFB0
0000DFFE412AFD20
0029FFFFFFFD8100
01EC964211000000
ENDCHAR
STARTCHAR c
ENCODING 99
SWIDTH 437 0
DWIDTH 11 0
BBX 11 13 0 2
BITMAP
0003AEEC4000
006A13FFF300
04E100DFF800
0D9000BFF700
4F60004EC100
7F5000000000
9F6000006400
9F8000001C00
7FD000000C10
3FF700001E10
0BFF8203BC00
02DFFFFFE300
0019DFEA2000
ENDCHAR
STARTCHAR d
ENCODING 100
SWIDTH 523 0
DWIDTH 13 0
BBX 14 23 0 1
BITMAP
0000000005B000
00000026CFD000
000003D9FFD000
00000000DFD000
00000000CFC000
00000000CFC000
00000000BFC000
00000000BFB000
00000000BFB000
00000000AFB000
00000000AFA000
00000000AFA000
000000009FA000
000000009F9000
004AEFEBCF9000
07FF9202BF9000
3FFA00008F8000
9FF400008F8000
AFF300008F8000
9FF400008F8000
5FFA00009F9000
0AFF8214EFE400
006BDFEDCBBCB1
ENDCHAR
STARTCHAR e
ENCODING 101
SWIDTH 434 0
DWIDTH 10 0
BBX 11 13 0 1
BITMAP
00039DEC5000
006FB21BF700
04FE1003FE00
0DF90002FF10
4FF50004FE00
7FF3000AF900
8FF4029FD100
9FFDEFC72800
7FF500000C00
3FF800000C00
0BFE20001C00
01CFD412B400
0017CEEB4000
ENDCHAR
STARTCHAR f
ENCODING 102
SWIDTH 299 0
DWIDTH 7 0
BBX 14 32 -2 -5
BITMAP
000000019EE910
0000000C612CB0
000000790006F2
000000D2000AF4
000004D003BFF4
000008A03FFFF1
00000B807FFFA0
00000E701CEA10
00001F70000000
00004F80000000
00007FC1143000
0002DFFFB72000
1ADFFFD1000000
0210BFA0000000
00009FB0000000
00009FB0000000
00009FB0000000
00009FC0000000
00009FC0000000
00008FD0000000
00008FD0000000
00008FE0000000
00008FE0000000
00008FF0000000
00008FF0000000
00008FF1000000
00008FF2000000
00008FF4000000
0000AFFB200000
0002EFFFFE3000
007D8420000000
00300000000000
ENDCHAR
STARTCHAR g
ENCODING 103
SWIDTH 567 0
DWIDTH 14 0
BBX 16 23 -1 -9
BITMAP
00000000004CED50
000000000571CFF2
00019DFECD00DFF3
002DFE416FC18EA0
00AFF5000BF80000
00FFF10008FE0000
01FFE00007FE0000
00FFF00009FD0000
00BFF4000DF80000
002EFD219FC10000
0002AFFEC7100000
0007D40000000000
000BE51000000000
00017EFEC9510000
0006EA126CFE6000
00AFA000008FF500
08FF2000000CFB00
1EFB00000008FD00
3FFC00000007FB00
3FFE0000000AF500
0DFF7000003F9000
04EFF92016D70000
0028CEEDB6100000
ENDCHAR
STARTCHAR h
ENCODING 104
SWIDTH 566 0
DWIDTH 14 0
BBX 15 26 -1 0
BITMAP
0000048000000000
00007F7000000000
027DFF5000000000
4ECEFF3000000000
0001FF2000000000
0000DF0000000000
0000DE0000000000
0000ED0000000000
0000EC0000000000
0000FB0000000000
0001FA0000000000
0002F90000000000
0003F80000000000
0004F80000000000
0006F708EEA10000
0007F7931CFC0000
0008FB5005FF4000
0009FE0002FF7000
000BFB0001FF8000
000CF80000FF9000
000EF50000FF9000
001FF30001FF8000
004FF20002FF8000
01BFF20004FFC100
CFFFF8004DECDE70
11026CB042000000
ENDCHAR
STARTCHAR i
ENCODING 105
SWIDTH 301 0
DWIDTH 7 0
BBX 7 17 0 2
BITMAP
004EC100
00AFF300
005EB000
00000000
0125A700
8FFFF600
02EFF400
00AFF200
009FF000
009FE000
009FD000
009FB000
009FA000
00AF9000
00BF9000
02EFD300
7FDDEFB0
ENDCHAR
STARTCHAR j
ENCODING 106
SWIDTH 367 0
DWIDTH 9 0
BBX 12 28 -3 -12
BITMAP
0000002DD200
0000006FF500
0000002DD100
000000000000
000120014710
00028EFFFF50
000001AFFF80
0000000CFFB0
00000004FFD0
00000000EFF0
00000000AFF1
000000006FF2
000000004FF3
000000001FF4
000000000EF4
000000000DF4
000000000DF4
000000000CF3
000000000CF2
000000000CF1
03BEC1000DD0
1EFFF6000FA0
7FFFE3003F60
AFA510006F10
9B000000C900
6C000007E200
0C92028E4000
018DFE920000
ENDCHAR
STARTCHAR k
ENCODING 107
SWIDTH 567 0
DWIDTH 14 0
BBX 16 28 -2 -4
BITMAP
0000196000000000
0259EF6000000000
8EDFFF5000000000
0002EF5000000000
0000AF6000000000
00009F6000000000
00008F6000000000
00007F7000000000
00007F7000000000
00007F8000000000
00006F8000000000
00006F909B521000
00006F9007FFFB00
00006FA002E61000
00005FB01B200000
00005FB0B4000000
00005FDBF4000000
00004FFDF8000000
00004FE4FE000440
00004FF0EF600091
00004FF19FD10075
00004FF32EFC31B5
00004FF405FFFFF1
00004FF6004BED50
00006FF800000000
0000CFFD20000000
038CDCCDEFB00000
0110000000000000
ENDCHAR
STARTCHAR l
ENCODING 108
SWIDTH 354 0
DWIDTH 9 0
BBX 11 23 -2 0
BITMAP
000000630000
000003F30000
00003EF30000
0006FFF30000
04CFFFF30000
2D84CFF40000
00008FF40000
00006FF50000
00004FF60000
00002FF60000
00000FF70000
00000EF80000
00000DF90000
00000BF90000
00000AFA0000
000008FB0000
000007FC0000
000006FD0000
000004FE0000
000004FF1000
000018FFA200
0008FFFFFF50
000131001210
ENDCHAR
STARTCHAR m
ENCODING 109
SWIDTH 708 0
DWIDTH 17 0
BBX 17 12 0 1
BITMAP
000010000000000000
002990000000000000
4BFFB1AEC319EE7000
00AFD719FD616FF300
005FF303FF301FF600
002FF002FF000EF600
000FE002FE000FF500
000EF007FF203FF400
002FF36FFFC1BFF300
0BFFFD6013528EF500
011012400000007C20
000000000000000130
ENDCHAR
STARTCHAR n
ENCODING 110
SWIDTH 584 0
DWIDTH 14 0
BBX 14 16 0 0
BITMAP
00022000000000
001C6000000000
00AF8002CFD500
2CFFA02EFFFF30
41BFC0A318FFA0
006FE44000DFD0
002FF900009FE0
000EFA00008FE0
000AF800007FC0
0007F800008FB0
0005F800008F90
0002F90000AF70
0001FB0003EF60
0002FF23FFFF60
01DFFFE3137DC1
0021013200006A
ENDCHAR
STARTCHAR o
ENCODING 111
SWIDTH 503 0
DWIDTH 12 0
BBX 12 11 0 2
BITMAP
0006BEFD8100
01CFA118FD20
0AFE0000AFC0
2FFA00004FF4
6FF800000FF8
7FF800000DF9
6FFA00000CF7
2FFE00000DF4
0AFF60003FC0
01BFE512CD20
0006BEFC7100
ENDCHAR
STARTCHAR p
ENCODING 112
SWIDTH 509 0
DWIDTH 12 0
BBX 12 23 0 -10
BITMAP
000090000000
0008F0000000
03BFF17DFC30
4BBFF8319FF2
002FF6000EF9
001FF1000BFC
000FE0000AFC
001FD0000BFB
001FE0000DF8
001FF2003FF2
001FFB12CF60
002FFAEFC500
002FF3000000
002FF3000000
003FF3000000
003FF3000000
004FF4000000
004FF4000000
005FF6000000
007FF8000000
00CFFC000000
4CEFFFC30000
000014760000
ENDCHAR
STARTCHAR q
ENCODING 113
SWIDTH 505 0
DWIDTH 12 0
BBX 13 24 0 -10
BITMAP
00000000001100
00000003FF8300
007DFDA6FD0000
0AFE413CFC0000
5FF50005FB0000
9FF20005FB0000
9FF20005FB0000
6FF60006FB0000
1DFE512CFB0000
019EFD88FB0000
00000007FB0000
00000007FB0000
00000008FB0000
00000008FB0000
00000008FB0000
00000008FB0000
00000009FB0000
00000009FB0000
0000000AFB0000
0000000AFB0000
0000001DFC0000
0000AFFFFF3000
000000248DF910
00000000003710
ENDCHAR
STARTCHAR r
ENCODING 114
SWIDTH 414 0
DWIDTH 10 0
BBX 12 16 0 0
BITMAP
0000002BFD50
000461D614F2
027E776029F5
6FFF9C00EFF3
00AFEA00BE90
007FF7000000
005FF6000000
004FF6000000
002FF7000000
001FF8000000
000FFA000000
000DFD000000
000CFF100000
000CFF600000
015FFFFF4000
1DB732100000
ENDCHAR
STARTCHAR s
ENCODING 115
SWIDTH 482 0
DWIDTH 12 0
BBX 13 19 -1 -3
BITMAP
00000000003400
000003BEE9A300
00003FB219F100
0000BF3001D000
0000DF3000A000
0000BFA0006000
00005FF6000000
00000AFF600000
000001CFF70000
0000001DFF7000
00000003EFF400
000041005FFD00
0001C0000BFF50
0008800004FF80
004F500001FF80
02EF600002FF60
2A49B00007FE10
000089216EF600
000004BEEB4000
ENDCHAR
STARTCHAR t
ENCODING 116
SWIDTH 434 0
DWIDTH 10 0
BBX 11 19 0 0
BITMAP
000001D00000
000006E00000
00000BB00000
00002F800000
0000AF600000
002AFFEEC000
6DFFFF610000
113FF8000000
006FF3000000
00AFE0000000
00DFB0000000
01FF80000000
02FF70000000
03FF60000000
02FF7001DC00
00FF9001DF20
00AFE1003E00
002EFB217700
00029EFD7000
ENDCHAR
STARTCHAR u
ENCODING 117
SWIDTH 744 0
DWIDTH 18 0
BBX 18 13 0 0
BITMAP
0000910000149B0000
0007F3003EEFFE0000
03BFF5000007FF0000
7CBFF8000002FF1000
000CFA000001FF2000
0008FD000001FF4000
0006FF100002FF6000
0004FF400004CF8000
0002FF9000077FC000
0000DFE100094FFEDB
00008FFB21A4197420
00001DFFFFA0000000
000002AEE910000000
ENDCHAR
STARTCHAR v
ENCODING 118
SWIDTH 600 0
DWIDTH 14 0
BBX 15 15 0 -1
BITMAP
00002A6000000000
0039FC0000000000
69EFFD0000000000
102FFF2000000200
0009FF700AEDFB10
0002FFC0002F4000
0000BFF2002B0000
00004FF800660000
00000CFD00A10000
000006FF40A00000
000000DFA4600000
0000007FFC100000
0000001EFA000000
00000007F5000000
00000001B0000000
ENDCHAR
STARTCHAR w
ENCODING 119
SWIDTH 745 0
DWIDTH 18 0
BBX 18 13 0 -1
BITMAP
000000200000000000
00005A2000000468BB
037DF5000570016E51
BEFFF6000BE1008700
00AFFA002FF800B200
004FFE008EFF20D000
000EFF40A6FF949000
0009FF9550CFFC4000
0003FFEB104FFE0000
0000DFF9000AF80000
00007FF30001C20000
00001EC00000000000
000008400000000000
ENDCHAR
STARTCHAR x
ENCODING 120
SWIDTH 548 0
DWIDTH 13 0
BBX 15 14 -1 1
BITMAP
0000247BD0000000
1EFFFFF910000000
002AFFF504200000
0000AFF807DFFC50
00002FFE10A91000
000008FF79900000
000001EFFB000000
0000007FF5000000
0000001FF8000000
0000007FFE100000
000006A3FF600000
00039D109FE40000
00AC88429FFFE600
0000004D83100000
ENDCHAR
STARTCHAR y
ENCODING 121
SWIDTH 659 0
DWIDTH 16 0
BBX 16 24 0 -11
BITMAP
000004C100000000
0002AE5000000144
04AFF3001EEDEFE4
8EFFE000016FFF70
01FFE000000BFF40
00CFF0000009FF30
009FF3000009FF20
006FF600000BFF10
002FFB00000EFE00
000CFF30005EFD00
0005FFD404D8FB00
0000AFFFFF67F900
000007DFC508F600
000000000009F300
00000000000BF000
00000000000DB000
00000000000F7000
00000000003F3000
0002BEC2007C0000
000DFFF800D60000
00384DE406D00000
004500003E400000
001C4116E6000000
0002BEEA30000000
ENDCHAR
STARTCHAR z
ENCODING 122
SWIDTH 460 0
DWIDTH 11 0
BBX 12 14 0 0
BITMAP
2EB742100000
4FFDCDEFF800
5F40003FF200
690000BFA000
740004FF3000
71000DFB0000
00006FF30000
0001EFB00000
0009FF400000
004FFC000061
00DFF40000B1
07FFD0124AF0
2FFFFFFEFFD0
375310000000
ENDCHAR
STARTCHAR braceleft
ENCODING 123
SWIDTH 460 0
DWIDTH 11 0
BBX 11 30 0 -7
BITMAP
000002AED800
00000DD21670
00005F800000
00009F700000
0000BF900000
0000BFB00000
0000AFE00000
00008FF30000
00006FF60000
00005FF70000
00006FF70000
00009FF30000
0004FF800000
15AFD6000000
6EE500000000
007E80000000
0005FA000000
0000BF400000
00007FA00000
00006FD00000
00006FF00000
00007FF10000
00008FF10000
00009FF10000
0000AFF10000
0000AFF30000
00008FF60060
00006FFC13A0
00001EFFFF70
000003BEE900
ENDCHAR
STARTCHAR bar
ENCODING 124
SWIDTH 368 0
DWIDTH 9 0
BBX 3 26 3 -5
BITMAP
4600
6700
5700
5700
5800
4800
4800
3900
3900
2A00
2A00
1B00
1B00
0C00
0C00
0C00
0C00
0C00
0B00
0B00
0B10
0A10
0A20
0930
0830
0620
ENDCHAR
STARTCHAR braceright
ENCODING 125
SWIDTH 476 0
DWIDTH 11 0
BBX 12 25 0 -6
BITMAP
03BEEB400000
3B22DFF40000
92007FFB0000
00004FFE0000
00002FFF0000
00000FFF0000
00000CFF0000
000008FF0000
000001EF2000
0000002AA661
000000005E50
00000003F900
00000008F700
00000008FA00
00000006FD00
00000003FF30
00000000EF70
00000000BFB0
000000008FD0
000000006FE0
000000004FD0
000000005F80
00000000AE10
0000014AE300
00004ED81000
ENDCHAR
STARTCHAR asciitilde
ENCODING 126
SWIDTH 733 0
DWIDTH 18 0
BBX 16 5 1 4
BITMAP
0000000000000055
005CED93000003E2
06614BFFB5115E90
3600004DFFFFFC10
600000016CED8100
ENDCHAR
STARTCHAR nonbreakingspace
ENCODING 160
SWIDTH 270 0
DWIDTH 6 0
BBX 1 1 0 0
BITMAP
00
ENDCHAR
STARTCHAR exclamdown
ENCODING 161
SWIDTH 247 0
DWIDTH 6 0
BBX 4 26 1 -3
BITMAP
5EC1
BFF4
6EC1
0000
0000
0000
0210
0850
0980
09B0
0AC0
0BE0
0BF1
0CF2
0DF4
0FF5
1FF6
3FF7
4FF8
6FF9
7FFA
9FFA
9FFA
AFFA
8FF7
2DC1
ENDCHAR
STARTCHAR cent
ENCODING 162
SWIDTH 799 0
DWIDTH 19 0
BBX 13 22 3 -6
BITMAP
00005000000000
00006200000000
00003600000000
00003DDFD91000
0007FD203CE200
005FB80004FA00
01EF35400AFD00
07FD01802FFD00
0CFA00901CE500
0FF90091000000
1FFA0054000000
0FFC0028000000
0DFF300A000710
07FFB00A102C00
01DFFB3755D500
003DFFFFFF8000
00017CEFE50000
00000000B10000
00000000760000
000000002B0000
000000000B0000
00000000010000
ENDCHAR
STARTCHAR sterling
ENCODING 163
SWIDTH 799 0
DWIDTH 19 0
BBX 14 22 3 -3
BITMAP
000017CFE91000
0001CC413DD100
000BE2000AF800
004FB0005FFB00
009FA002FFFB00
00CFB005FFF700
00DFE001BE9000
00CFF300000000
00AFF900000000
007FFE23720000
005FFFD6200000
7C9CFFE0000000
0004FFF5000000
0000CFFA000000
00005FFE000000
00000EFF000000
00000AFF000081
000007FD000028
04CFEDF9000009
1B202BABB51185
3A1169006CED70
09ED5000000000
ENDCHAR
STARTCHAR currency
ENCODING 164
SWIDTH 732 0
DWIDTH 18 0
BBX 15 18 1 0
BITMAP
0000000000320000
0000000001D20000
320000000AA00000
3D417CEFFF900000
04FE830137E80000
01F50000002D4000
089000000006A000
0D4000000003C000
1F1000000004B000
1F10000000078000
0E400000000C2000
09C1000000970000
02EC52026CF40000
005FFFFD934D5000
008F20000002C800
01E90000000008A0
04E2000000000020
0240000000000000
ENDCHAR
STARTCHAR yen
ENCODING 165
SWIDTH 799 0
DWIDTH 19 0
BBX 19 26 0 -4
BITMAP
00000000010000000000
01000126B70000000000
1AFFFFFF700000001840
002AFFFF2000036AD500
00008FFF7002FFFB1000
00000BFFD00003D10000
000002FFF50006500000
0000008FFD000A000000
0000001EFF6056000000
00000008FFE2C1000000
00000001FFFFA0000000
00000000AFFF60000000
000000004FFF40000000
000000000EFF30000000
00000CDDDFFFEEEFFB00
000001211CFF00000000
000000123DFFDEF70000
000007ECCFFF31000000
000000000DFD00000000
000000000DFD00000000
000000000DFD00000000
000000000FFF10000000
000000004FFF92000000
00000003DFFFFFB00000
000005BEB74211000000
00000751000000000000
ENDCHAR
STARTCHAR brokenbar
ENCODING 166
SWIDTH 341 0
DWIDTH 8 0
BBX 2 28 3 -6
BITMAP
45
57
57
57
57
57
57
58
58
57
11
00
00
35
48
48
39
39
39
39
49
49
49
59
59
68
68
56
ENDCHAR
STARTCHAR section
ENCODING 167
SWIDTH 546 0
DWIDTH 13 0
BBX 11 27 1 -7
BITMAP
00029DFD8100
005F9215FD10
01EC0000BF80
07F90001EFC0
09FB0004FFC0
09FF4001CE50
07FFE3000000
01EFFE500000
00AFFFF80000
0AB4DFFFB100
5F4007EFFB00
AF30001AFF70
CF9000008FD0
9FF600000CD0
3FFF910008B0
06FFFD300B50
004EFFF76800
00019FFFB000
000003CFF400
0000001AFD00
00000000AF30
000000001E50
000000000B50
002DD2000A20
006FFB000900
003FFF616300
0005DFEA2000
ENDCHAR
STARTCHAR dieresis
ENCODING 168
SWIDTH 393 0
DWIDTH 9 0
BBX 6 3 2 16
BITMAP
3EA000
9FE3EA
5E83E9
ENDCHAR
STARTCHAR copyright
ENCODING 169
SWIDTH 1023 0
DWIDTH 25 0
BBX 23 22 1 -4
BITMAP
00000016ADEFEC9510000000
000007EA5210247CE7000000
0001CA10000000004DC20000
001D70000000300001AD1000
00B8000000008000000BB000
05C00003AEFEE0000002F500
0C50005FB217E00000009C00
2E0001EF2000910000005F10
6A0006FC0000240000001F30
970009FA0000000000000F50
B50009FB0000022000000E40
B40007FE0000054000000F40
B40001EF60000A1000002F10
A600005FF7217A0000005E00
79000003AEFD700000009900
2D000000000000000001E400
0B600000000000000008B000
03E2000000000000004E2000
007C10000000000004E50000
0008E500000000019E400000
00005DC7310135AEA2000000
00000059CEFEDA6200000000
ENDCHAR
STARTCHAR ordfeminine
ENCODING 170
SWIDTH 558 0
DWIDTH 13 0
BBX 12 12 1 8
BITMAP
03CFE8100000
3F514EA00000
9F4007F20000
BFB004F60000
6E9005F90000
006CEFFA0000
09F613FB0000
3F9001FB0091
7F7004FD0093
7FB11CEE0092
3FFFFC7F71B0
07EEC309ED40
ENDCHAR
STARTCHAR guillemotleft
ENCODING 171
SWIDTH 608 0
DWIDTH 15 0
BBX 13 22 1 -6
BITMAP
00000000000100
00000000000800
00000000000B00
00000005203A00
0000001C008700
0000009900D300
000005F204E000
00004F900BA000
0006FE105F6000
019FF502EF2000
3DFFA01DFF5000
9FFF700AFFC000
0AFFE200AFF400
009FFB001DFA00
0009FF5004FE00
0000AFD000BF20
00000CF7004F40
000002EE100D50
0000004F700750
00000009D00130
00000000C50000
00000000260000
ENDCHAR
STARTCHAR logicalnot
ENCODING 172
SWIDTH 616 0
DWIDTH 15 0
BBX 13 6 1 6
BITMAP
00011111111100
9FFEEDDCCBDF60
00000000000B90
00000000000980
00000000000A60
00000000000730
ENDCHAR
STARTCHAR uni00AD
ENCODING 173
SWIDTH 436 0
DWIDTH 10 0
BBX 9 2 1 5
BITMAP
3310012300
6BDFFFEC20
ENDCHAR
STARTCHAR registered
ENCODING 174
SWIDTH 1048 0
DWIDTH 25 0
BBX 23 22 1 -5
BITMAP
000000048CEFEDA720000000
000006DB63201247CA200000
0002CB300000000004B60000
002D79EEEFFFEB3000096000
00C7003DF912BFE200009300
07B00009F5001FF700001A00
0D300007F5000EF800000730
4D000007F5001FF600000180
89000007F5007FD000000090
A7000007F628FD2000000090
B6000007FFFFA10000000090
C6000008F77FC00008000090
B7000009F81FF40008200090
9A00000CFC08FC0008200090
6E00017FFF50AFA22B000460
1F504FDCBDFB26DFC4000920
09D000000014100000002900
01E90000000000000001B200
003E800000000000001B4000
0003DB300000000005C40000
000018EB63101248DA200000
00000016ACEFEDA720000000
ENDCHAR
STARTCHAR macron
ENCODING 175
SWIDTH 382 0
DWIDTH 9 0
BBX 7 1 1 19
BITMAP
6CDEEFC0
ENDCHAR
STARTCHAR degree
ENCODING 176
SWIDTH 346 0
DWIDTH 8 0
BBX 7 6 1 17
BITMAP
06DEA100
5C21AB00
A5001F10
B5001F00
7C219A00
08EE9100
ENDCHAR
STARTCHAR plusminus
ENCODING 177
SWIDTH 580 0
DWIDTH 14 0
BBX 12 9 1 3
BITMAP
000000300000
000004C00000
000004B00000
000018B00000
2EFECCEBBAB6
000001800000
000001800000
000000500000
9FEDCBBBB900
ENDCHAR
STARTCHAR twosuperior
ENCODING 178
SWIDTH 365 0
DWIDTH 9 0
BBX 9 13 0 8
BITMAP
002AEEA200
00922CFB00
011006FE00
000005FD00
000009F800
00002ED100
0001CB2000
005B500000
3DF3000110
03DE725800
001BFFC100
0001CE2000
0000230000
ENDCHAR
STARTCHAR threesuperior
ENCODING 179
SWIDTH 371 0
DWIDTH 9 0
BBX 9 13 0 9
BITMAP
0210120000
0CFFFE1000
0BFFF60000
0820900000
0206830000
000DFFB200
00016EFC00
110005FF30
610000EF60
720000EF50
670002FF10
1D513CF700
03BEEB5000
ENDCHAR
STARTCHAR acute
ENCODING 180
SWIDTH 234 0
DWIDTH 6 0
BBX 4 5 1 18
BITMAP
00B5
08F2
1E80
7D10
9200
ENDCHAR
STARTCHAR mu
ENCODING 181
SWIDTH 634 0
DWIDTH 15 0
BBX 15 22 1 -8
BITMAP
0110000000000000
EF30000014000000
FF200008EE000000
FF100008FF000000
FF200004FF200000
EF300001FF300000
EF500000EF400000
EF800000DF606400
DFD00000FF800A00
CFF60004EFC00920
CF8E513C4FF61C20
CF73CFC40AFFFE00
BF800000019ED400
BF90000000000000
AFB0000000000000
AFC0000000000000
9FE0000000000000
9FF1000000000000
8FF3000000000000
7FF5000000000000
6FF6000000000000
1200000000000000
ENDCHAR
STARTCHAR paragraph
ENCODING 182
SWIDTH 707 0
DWIDTH 17 0
BBX 17 29 0 -9
BITMAP
000000000000005B10
0000000001359EB100
000379BCEFFFFC0000
02CFFFFC211EF50000
2DFFFFF9000CF10000
9FFFFFF8000CE00000
DFFFFFF8000DD00000
FFFFFFF7000DC00000
DFFFFFF6000DB00000
9FFFFFF6000EB00000
1DFFFFF6000EB00000
01AFFFF6000FB00000
0002AFF6000FB00000
00000DF6000FC00000
00000AF7001FC00000
000008F8001FD00000
000007F8001FE00000
000006F9001FF00000
000005FA002FF10000
000005FB002FF30000
000004FC002FF50000
000004FD002FF70000
000004FE002FFC0000
000004FF001FFF9200
000004FF100FFDDEC0
000006FF1001000000
00001DFF2000000000
0016EEA60000000000
05D930000000000000
ENDCHAR
STARTCHAR periodcentered
ENCODING 183
SWIDTH 238 0
DWIDTH 6 0
BBX 4 4 1 7
BITMAP
3DC2
BFF7
BFF7
4EC1
ENDCHAR
STARTCHAR cedilla
ENCODING 184
SWIDTH 332 0
DWIDTH 8 0
BBX 6 8 1 -6
BITMAP
004300
008100
00C930
00DFF3
000AFA
7004FA
7619F5
09EE70
ENDCHAR
STARTCHAR onesuperior
ENCODING 185
SWIDTH 336 0
DWIDTH 8 0
BBX 8 11 0 10
BITMAP
00000810
00006E00
0008FC00
0386FB00
0100EB00
0000EB00
0000FC00
0003FC00
0009FE00
4CEFFF60
000259D6
ENDCHAR
STARTCHAR ordmasculine
ENCODING 186
SWIDTH 503 0
DWIDTH 12 0
BBX 12 11 0 7
BITMAP
0007CFEB5000
01A5127EFA00
08600002DF80
0E2000004FE1
2F1000000CF4
3F30000008F5
1F70000006F4
0DE1000006F1
06FA00000AA0
009FC5117D20
0004BEFD8100
ENDCHAR
STARTCHAR guillemotright
ENCODING 187
SWIDTH 778 0
DWIDTH 19 0
BBX 17 23 1 -7
BITMAP
000000300000000000
000000550000000000
1000001D1000000000
91000008B000000000
6A000001DA00000000
1E8000003EB1000000
07FA100005FD300000
00AFE810004EF70000
000AFFFA6203DFD500
00006EFFFF607FFF50
000002EFF605FFF700
000006FD305FFD3000
00004FD202EFB10000
0001ED100CFB000000
000BE2007FC0000000
005F4001EE20000000
00C80006F600000000
04D0000BD000000000
0950000F7000000000
0700002F1000000000
0000003B0000000000
000000370000000000
000000020000000000
ENDCHAR
STARTCHAR onequarter
ENCODING 188
SWIDTH 876 0
DWIDTH 21 0
BBX 21 24 0 -1
BITMAP
0000000000000000020000
0000000000000000490000
0000081000000001D10000
00006E000000000A600000
0008FC000000006B000000
0386FB00000003E2000000
0100EB0000001D50000000
0000EB0000009A00000000
0000FC000005D100000000
0003FC00002E4008000000
0009FE0000C8004D000000
4CEFFF6008B000BF000000
000259D64E2004FF100000
00000001D5000ACF300000
0000000A9000559F503000
0000006C0000A07F709000
000002E20007405FA6F100
00000B60001B004FFFF200
00007A00009CACEFFFE200
0003D1000034322FF20000
001D40000000001FF80000
008800000000003FFF6100
02B00000000009EFEEFF70
0110000000000552000000
ENDCHAR
STARTCHAR onehalf
ENCODING 189
SWIDTH 762 0
DWIDTH 18 0
BBX 18 24 0 -1
BITMAP
000000000000000002
000000000000000049
0000081000000001D1
00006E000000000A60
0008FC000000006B00
0386FB00000003E200
0100EB0000001D5000
0000EB0000009A0000
0000FC000005D10000
0003FC00002E400000
0009FE0000C8000000
4CEFFF6008B07DEC40
000259D64E27419FE1
00000001D502001FF4
0000000A9000001FF3
0000006C0000004FD0
000002E2000000BF40
00000B60000009D400
00007A000003A71000
0003D10000BF700002
001D4000001AF93392
0088000000007FFE30
02B00000000008F500
011000000000005000
ENDCHAR
STARTCHAR threequarters
ENCODING 190
SWIDTH 922 0
DWIDTH 22 0
BBX 22 24 0 -1
BITMAP
0000000000000000001000
021012000000000001B000
0CFFFE1000000000096000
0BFFF600000000005B0000
0820900000000002E20000
020683000000000C600000
000DFFB20000008B000000
00016EFC000004E1000000
110005FF30001D40000000
610000EF6000B900800000
720000EF5007C002F00000
670002FF103E200AF20000
1D513CF701D6002FF30000
03BEEB5009A0009BF50000
000000005D100377F70210
00000001E3000A05F90720
0000000B70005604FB5E20
0000006B0001B002FFFF40
000002D10007DACEFFFE40
00000C4000024321EF4000
0000890000000000EF9000
0003C00000000001FFF710
000B30000000007EFFEEF9
0001000000000055200000
ENDCHAR
STARTCHAR questiondown
ENCODING 191
SWIDTH 571 0
DWIDTH 14 0
BBX 14 22 0 -3
BITMAP
000001BE900000
000006FFF30000
000007FFF30000
000001CE900000
00000000000000
00000094000000
0000000C000000
0000000A200000
0000001D000000
000001B8000000
00002CD1000000
0005EF40000000
006FF9009EE800
04FFF205FFFFA0
0CFFB006FFFFF1
4FFF7001BFFFF4
6FFF700004DFF3
5FFF8000002FF1
2FFFB000000EA0
0BFFF400003F20
01CFFE6214C400
0005ADEFD92000
ENDCHAR
STARTCHAR Agrave
ENCODING 192
SWIDTH 784 0
DWIDTH 19 0
BBX 20 27 0 -2
BITMAP
0002E600000000000000
0001EF40000000000000
00004ED1000000000000
000004E7000000000000
0000003B000000000000
000000002B4000000000
0000025AFFA000000000
0000CECFFFF100000000
00000009DFF500000000
0000000B2EFB00000000
0000001B0AFF10000000
0000005706FF60000000
000000A202FFB0000000
000000C000CFF1000000
00000580009FF6000000
00000AEB726FFB000000
00001E149EFFFF100000
00006A00006FFF600000
0000B5000008FFC00000
0002E0000002FFF20000
0008A0000000CFF70000
005F600000007FFD0000
DFFF900000003FFF3000
0259EC0000000DFFA000
0000140000000AFFF820
0000000000016EFFFFF2
00000000001DA6310000
ENDCHAR
STARTCHAR Aacute
ENCODING 193
SWIDTH 784 0
DWIDTH 19 0
BBX 20 28 0 -2
BITMAP
0000000006B000000000
000000002F7000000000
00000000AD1000000000
00000001F40000000000
00000005600000000000
00000000000000000000
000000002B4000000000
0000025AFFA000000000
0000CECFFFF100000000
00000009DFF500000000
0000000B2EFB00000000
0000001B0AFF10000000
0000005706FF60000000
000000A202FFB0000000
000000C000CFF1000000
00000580009FF6000000
00000AEB726FFB000000
00001E149EFFFF100000
00006A00006FFF600000
0000B5000008FFC00000
0002E0000002FFF20000
0008A0000000CFF70000
005F600000007FFD0000
DFFF900000003FFF3000
0259EC0000000DFFA000
0000140000000AFFF820
0000000000016EFFFFF2
00000000001DA6310000
ENDCHAR
STARTCHAR Acircumflex
ENCODING 194
SWIDTH 784 0
DWIDTH 19 0
BBX 20 28 0 -2
BITMAP
00000000680000000000
00000001EF6000000000
0000000B59F600000000
00000077008F91000000
000004800004C9000000
00003700000000000000
000000002B4000000000
0000025AFFA000000000
0000CECFFFF100000000
00000009DFF500000000
0000000B2EFB00000000
0000001B0AFF10000000
0000005706FF60000000
000000A202FFB0000000
000000C000CFF1000000
00000580009FF6000000
00000AEB726FFB000000
00001E149EFFFF100000
00006A00006FFF600000
0000B5000008FFC00000
0002E0000002FFF20000
0008A0000000CFF70000
005F600000007FFD0000
DFFF900000003FFF3000
0259EC0000000DFFA000
0000140000000AFFF820
0000000000016EFFFFF2
00000000001DA6310000
ENDCHAR
STARTCHAR Atilde
ENCODING 195
SWIDTH 784 0
DWIDTH 19 0
BBX 20 27 0 -2
BITMAP
000007EC400000000000
0000264EF81460000000
00005003EFFF40000000
000000003BE900000000
00000000000000000000
000000002B4000000000
0000025AFFA000000000
0000CECFFFF100000000
00000009DFF500000000
0000000B2EFB00000000
0000001B0AFF10000000
0000005706FF60000000
000000A202FFB0000000
000000C000CFF1000000
00000580009FF6000000
00000AEB726FFB000000
00001E149EFFFF100000
00006A00006FFF600000
0000B5000008FFC00000
0002E0000002FFF20000
0008A0000000CFF70000
005F600000007FFD0000
DFFF900000003FFF3000
0259EC0000000DFFA000
0000140000000AFFF820
0000000000016EFFFFF2
00000000001DA6310000
ENDCHAR
STARTCHAR Adieresis
ENCODING 196
SWIDTH 784 0
DWIDTH 19 0
BBX 20 26 0 -2
BITMAP
000003DE40BE30000000
000008FF82FF60000000
000003ED30CD20000000
00000000000000000000
000000002B4000000000
0000025AFFA000000000
0000CECFFFF100000000
00000009DFF500000000
0000000B2EFB00000000
0000001B0AFF10000000
0000005706FF60000000
000000A202FFB0000000
000000C000CFF1000000
00000580009FF6000000
00000AEB726FFB000000
00001E149EFFFF100000
00006A00006FFF600000
0000B5000008FFC00000
0002E0000002FFF20000
0008A0000000CFF70000
005F600000007FFD0000
DFFF900000003FFF3000
0259EC0000000DFFA000
0000140000000AFFF820
0000000000016EFFFFF2
00000000001DA6310000
ENDCHAR
STARTCHAR Aring
ENCODING 197
SWIDTH 784 0
DWIDTH 19 0
BBX 20 28 0 -2
BITMAP
00000007EE8000000000
0000005B219700000000
000000A5002B00000000
000000AB119A00000000
0000006FFFF500000000
00000008EE7000000000
000000002B4000000000
0000025AFFA000000000
0000CECFFFF100000000
00000009DFF500000000
0000000B2EFB00000000
0000001B0AFF10000000
0000005706FF60000000
000000A202FFB0000000
000000C000CFF1000000
00000580009FF6000000
00000AEB726FFB000000
00001E149EFFFF100000
00006A00006FFF600000
0000B5000008FFC00000
0002E0000002FFF20000
0008A0000000CFF70000
005F600000007FFD0000
DFFF900000003FFF3000
0259EC0000000DFFA000
0000140000000AFFF820
0000000000016EFFFFF2
00000000001DA6310000
ENDCHAR
STARTCHAR AE
ENCODING 198
SWIDTH 1172 0
DWIDTH 28 0
BBX 29 25 0 -5
BITMAP
000000000000000000000388000000
00000000000000000038DFFA000000
0000000000012358BEEA76C9000000
000000000BFFFFFFF5000067000000
0000000000137FDFE0000044000000
0000000000003B8FF1000051000000
000000000000757FF2000000000000
000000000000B05FF4000020000000
000000000003804FF6000260000000
000000000009203FF9000860000000
00000000001A002FFC028F60000000
000000000075001FFFFEDF60000000
0000000001C0001FFF300590005400
000000000680015FFF3000A0006500
000000000DFFFEEFFF500070009600
000000006D41000DFF80000000D800
00000000D300000AFFC0000005FA00
00000006A0000009FFF100004EFD00
0000001E20000008FFF6004AFFEB10
0000008900000008FFFEBDC8410000
000004F200000009FFFB5100000000
00003EB00000001EF8200000000000
0149FFA1000003C920000000000000
CEDCBBDEA000292000000000000000
100000000000000000000000000000
ENDCHAR
STARTCHAR Ccedilla
ENCODING 199
SWIDTH 742 0
DWIDTH 18 0
BBX 18 30 0 -10
BITMAP
000000000000000800
000000000000000B00
000000000000003C00
0000049CEFEDBAED00
0003CFD620138EFE00
005FFB10000002CF20
03FFE1000000001C70
0BFF70000000000290
3FFF20000000000000
7FFD00000000000000
AFFB00000000000000
CFFB00000000000000
DFFB00000000000000
CFFC00000000000007
BFFE00000000000018
8FFF30000000000047
3FFF80000000000073
0BFFE10000000000B0
02EFFB000000000760
004EFFA10000005A00
0002AFFD72014A9000
0000038CEFFD930000
000000000530000000
000000000920000000
000000000DF9000000
0000000008FF700000
00000000006FC00000
00000006003FB00000
00000006718F600000
000000008EE7000000
ENDCHAR
STARTCHAR Egrave
ENCODING 200
SWIDTH 557 0
DWIDTH 13 0
BBX 14 28 0 -3
BITMAP
00CA0000000000
00AF8000000000
001CF400000000
0001CC00000000
00001A30000000
00000000000000
454334579ADE10
1BFFFA42102E00
01FFF600000A00
00BFF600000700
008FF700000000
006FF800000000
004FF900000000
002FF900310000
000FFA00900000
000DFFEEE00000
000CFB14D00000
000AFC00A00000
0009FD00800000
0007FE00000000
0006FF00000000
0004FF10000000
0003FF20000002
0002FF30000035
0001FF500000A4
0004FF800018F2
6EEFFFFDCDFFF0
00011234679A60
ENDCHAR
STARTCHAR Eacute
ENCODING 201
SWIDTH 557 0
DWIDTH 13 0
BBX 14 28 0 -3
BITMAP
00000000A60000
00000007F30000
0000001E900000
0000006D100000
00000093000000
00000000000000
454334579ADE10
1BFFFA42102E00
01FFF600000A00
00BFF600000700
008FF700000000
006FF800000000
004FF900000000
002FF900310000
000FFA00900000
000DFFEEE00000
000CFB14D00000
000AFC00A00000
0009FD00800000
0007FE00000000
0006FF00000000
0004FF10000000
0003FF20000002
0002FF30000035
0001FF500000A4
0004FF800018F2
6EEFFFFDCDFFF0
00011234679A60
ENDCHAR
STARTCHAR Ecircumflex
ENCODING 202
SWIDTH 557 0
DWIDTH 13 0
BBX 14 29 0 -3
BITMAP
000000A4000000
000005FE200000
00002C3DD30000
0000B301CE6000
0009400007D400
00640000000000
00000000000000
454334579ADE10
1BFFFA42102E00
01FFF600000A00
00BFF600000700
008FF700000000
006FF800000000
004FF900000000
002FF900310000
000FFA00900000
000DFFEEE00000
000CFB14D00000
000AFC00A00000
0009FD00800000
0007FE00000000
0006FF00000000
0004FF10000000
0003FF20000002
0002FF30000035
0001FF500000A4
0004FF800018F2
6EEFFFFDCDFFF0
00011234679A60
ENDCHAR
STARTCHAR Edieresis
ENCODING 203
SWIDTH 557 0
DWIDTH 13 0
BBX 14 26 0 -3
BITMAP
0008EB03EA0000
000EFF28FF0000
0008EA04E90000
00000000000000
454334579ADE10
1BFFFA42102E00
01FFF600000A00
00BFF600000700
008FF700000000
006FF800000000
004FF900000000
002FF900310000
000FFA00900000
000DFFEEE00000
000CFB14D00000
000AFC00A00000
0009FD00800000
0007FE00000000
0006FF00000000
0004FF10000000
0003FF20000002
0002FF30000035
0001FF500000A4
0004FF800018F2
6EEFFFFDCDFFF0
00011234679A60
ENDCHAR
STARTCHAR Igrave
ENCODING 204
SWIDTH 438 0
DWIDTH 11 0
BBX 14 32 -2 -5
BITMAP
0000BB10000000
00009F90000000
00001CF4000000
000001CD000000
0000001A400000
00000000000000
00000000000000
03BA98889BCEFB
0025CFFFFE5100
00001EFFF30000
00000BFFC00000
00000AFF900000
000009FF600000
000009FF400000
000009FF300000
000009FF100000
000009FE000000
000009FD000000
000008FB000000
000009FA000000
000009F9000000
000009F8000000
000009F7000000
000009F6000000
000009F5000000
000009F5000000
00000AF4000000
00000BF5000000
00001EFB100000
0002CFFFFF4000
04AD8421000000
17300000000000
ENDCHAR
STARTCHAR Iacute
ENCODING 205
SWIDTH 438 0
DWIDTH 11 0
BBX 14 31 -2 -5
BITMAP
0000000002D100
000000000CC000
000000005F4000
00000000B90000
00000000B00000
00000000000000
03BA98889BCEFB
0025CFFFFE5100
00001EFFF30000
00000BFFC00000
00000AFF900000
000009FF600000
000009FF400000
000009FF300000
000009FF100000
000009FE000000
000009FD000000
000008FB000000
000009FA000000
000009F9000000
000009F8000000
000009F7000000
000009F6000000
000009F5000000
000009F5000000
00000AF4000000
00000BF5000000
00001EFB100000
0002CFFFFF4000
04AD8421000000
17300000000000
ENDCHAR
STARTCHAR Icircumflex
ENCODING 206
SWIDTH 438 0
DWIDTH 11 0
BBX 14 32 -2 -5
BITMAP
00000007700000
0000002FF50000
000000B4AF5000
000008600AF800
00006700005C80
00036000000000
00000000000000
03BA98889BCEFB
0025CFFFFE5100
00001EFFF30000
00000BFFC00000
00000AFF900000
000009FF600000
000009FF400000
000009FF300000
000009FF100000
000009FE000000
000009FD000000
000008FB000000
000009FA000000
000009F9000000
000009F8000000
000009F7000000
000009F6000000
000009F5000000
000009F5000000
00000AF4000000
00000BF5000000
00001EFB100000
0002CFFFFF4000
04AD8421000000
17300000000000
ENDCHAR
STARTCHAR Idieresis
ENCODING 207
SWIDTH 438 0
DWIDTH 11 0
BBX 14 30 -2 -5
BITMAP
00007EB03EB000
0000EFF28FF000
00008EB04EA000
00000000000000
00000000000000
03BA98889BCEFB
0025CFFFFE5100
00001EFFF30000
00000BFFC00000
00000AFF900000
000009FF600000
000009FF400000
000009FF300000
000009FF100000
000009FE000000
000009FD000000
000008FB000000
000009FA000000
000009F9000000
000009F8000000
000009F7000000
000009F6000000
000009F5000000
000009F5000000
00000AF4000000
00000BF5000000
00001EFB100000
0002CFFFFF4000
04AD8421000000
17300000000000
ENDCHAR
STARTCHAR Eth
ENCODING 208
SWIDTH 730 0
DWIDTH 18 0
BBX 18 20 0 -5
BITMAP
067779BDEFEC830000
068DFF9114BFFF9100
0004FF600007FFFD10
0002FF600000AFFFA0
0002FF6000002FFFF3
0002FF6000000CFFF7
0002FF60000009FFFA
0003FF63300007FFFC
4ACEFFFC600007FFFB
3534FF60000008FFFA
0004FF6000000AFFF6
0004FF7000000EFFE1
0005FF8000004FFF60
0005FF900000BFF800
0007FFA00009FE7000
000AFFE315CF920000
000EFFFEC951000000
00AD85200000000000
2A5000000000000000
610000000000000000
ENDCHAR
STARTCHAR Ntilde
ENCODING 209
SWIDTH 799 0
DWIDTH 19 0
BBX 20 28 0 -5
BITMAP
000000006EC400000000
0000000173DF92370000
00000004102EFFF60000
000000000002BEA00000
00000000000000000000
00013200000000001471
DFFFFF600000EEEEFD91
014FFFF6000003BF9000
000BFFFF5000002F3000
00098CFFE400000F1000
000862EFFE30000D0000
0008604FFFE2000C0000
00076007FFFD100C0000
00076000BFFFC10C0000
000660001DFFFB3C0000
0006600004FFFFFC0000
00066000007FFFFB0000
00066000000AFFFB0000
000660000001CFFB0000
0006600000002EFA0000
00066000000003F90000
00066000000000470000
00077000000000000000
00088000000000000000
000CA000000000000000
019FF300000000000000
AEEFFE71000000000000
000026A6000000000000
ENDCHAR
STARTCHAR Ograve
ENCODING 210
SWIDTH 747 0
DWIDTH 18 0
BBX 18 25 0 1
BITMAP
00009C100000000000
00007FB00000000000
00000AF60000000000
000000BE1000000000
000000096000000000
000000000000000000
000000000000000000
000017BEFEC8400000
0005ED51138FFB2000
007FC1000004FFE300
04FF200000007FFE20
0DFA000000000DFFA0
5FF60000000007FFF2
9FF30000000002FFF7
BFF20000000000EFFA
DFF20000000000CFFB
CFF30000000000BFFB
BFF50000000000AFFA
8FF80000000000AFF7
4FFC0000000000CFF2
0DFF3000000001FFB0
04FFC000000008FE20
007FF90000003FF500
0005EFC51027FD3000
000016ADEFDA600000
ENDCHAR
STARTCHAR Oacute
ENCODING 211
SWIDTH 747 0
DWIDTH 18 0
BBX 18 24 0 1
BITMAP
0000000006B0000000
000000002F70000000
00000000AD10000000
00000001F400000000
000000056000000000
000000000000000000
000017BEFEC8400000
0005ED51138FFB2000
007FC1000004FFE300
04FF200000007FFE20
0DFA000000000DFFA0
5FF60000000007FFF2
9FF30000000002FFF7
BFF20000000000EFFA
DFF20000000000CFFB
CFF30000000000BFFB
BFF50000000000AFFA
8FF80000000000AFF7
4FFC0000000000CFF2
0DFF3000000001FFB0
04FFC000000008FE20
007FF90000003FF500
0005EFC51027FD3000
000016ADEFDA600000
ENDCHAR
STARTCHAR Ocircumflex
ENCODING 212
SWIDTH 747 0
DWIDTH 18 0
BBX 18 24 0 1
BITMAP
00000003B000000000
0000000CF900000000
000000786F90000000
000003A005FC200000
00002A10003AC00000
000181000000000000
000017BEFEC8400000
0005ED51138FFB2000
007FC1000004FFE300
04FF200000007FFE20
0DFA000000000DFFA0
5FF60000000007FFF2
9FF30000000002FFF7
BFF20000000000EFFA
DFF20000000000CFFB
CFF30000000000BFFB
BFF50000000000AFFA
8FF80000000000AFF7
4FFC0000000000CFF2
0DFF3000000001FFB0
04FFC000000008FE20
007FF90000003FF500
0005EFC51027FD3000
000016ADEFDA600000
ENDCHAR
STARTCHAR Otilde
ENCODING 213
SWIDTH 747 0
DWIDTH 18 0
BBX 18 23 0 1
BITMAP
000002CE8000000000
0000082AFC41900000
00000500AFFFB00000
0000000008ED300000
000000000000000000
000017BEFEC8400000
0005ED51138FFB2000
007FC1000004FFE300
04FF200000007FFE20
0DFA000000000DFFA0
5FF60000000007FFF2
9FF30000000002FFF7
BFF20000000000EFFA
DFF20000000000CFFB
CFF30000000000BFFB
BFF50000000000AFFA
8FF80000000000AFF7
4FFC0000000000CFF2
0DFF3000000001FFB0
04FFC000000008FE20
007FF90000003FF500
0005EFC51027FD3000
000016ADEFDA600000
ENDCHAR
STARTCHAR Odieresis
ENCODING 214
SWIDTH 747 0
DWIDTH 18 0
BBX 18 23 0 1
BITMAP
000005ED21DC100000
00000BFF55FF300000
000006EC12EC000000
000000000000000000
000000000000000000
000017BEFEC8400000
0005ED51138FFB2000
007FC1000004FFE300
04FF200000007FFE20
0DFA000000000DFFA0
5FF60000000007FFF2
9FF30000000002FFF7
BFF20000000000EFFA
DFF20000000000CFFB
CFF30000000000BFFB
BFF50000000000AFFA
8FF80000000000AFF7
4FFC0000000000CFF2
0DFF3000000001FFB0
04FFC000000008FE20
007FF90000003FF500
0005EFC51027FD3000
000016ADEFDA600000
ENDCHAR
STARTCHAR multiply
ENCODING 215
SWIDTH 541 0
DWIDTH 13 0
BBX 11 15 1 0
BITMAP
000000000010
000000000690
000000004D10
01000002D300
0790000B5000
009B10880000
0009D8A00000
0000BF600000
0001D6C80000
000A7009B100
006B00004400
03E200000000
1D6000000000
8B0000000000
610000000000
ENDCHAR
STARTCHAR Oslash
ENCODING 216
SWIDTH 747 0
DWIDTH 18 0
BBX 18 23 0 -1
BITMAP
000000000000000052
0000000000000003B0
000000000000001C30
000017BEFEC9409800
0005ED51139FFCD000
007FC1000004FFE300
04FF20000000AFFE20
0DFA00000004DDFFA0
5FF60000002E37FFF2
9FF3000000C702FFF7
BFF2000008B000EFFA
DFF200005D1000CFFB
CFF30002E30000AFFB
BFF5000C700000AFFA
8FF7008B000000AFF7
4FFC04D1000000CFF2
0DFF4D30000001FFB0
04FFF700000008FE20
007FF90000003FF500
001DEFC51027FD3000
009816BDFFDA600000
04C000000000000000
092000000000000000
ENDCHAR
STARTCHAR Ugrave
ENCODING 217
SWIDTH 690 0
DWIDTH 17 0
BBX 18 25 0 1
BITMAP
0000006D3000000000
0000004FD100000000
00000007FA00000000
000000007F40000000
000000000690000000
000000000000000000
000000000000000000
000000000410000000
00000038EC10000000
0247AEFE5000000000
DFFFFFF60000000001
02CFFFD008EDBBBC98
004FFF900014BFF200
001FFF7000000CC000
000FFF60000007B000
000FFF50000005A000
000EFF50000004A000
000DFF500000039000
000CFF700000038000
0009FF900000056000
0006FFC00000073000
0001EFF200000B0000
00006FF90000570000
000008FF8116B00000
0000003AEFD8100000
ENDCHAR
STARTCHAR Uacute
ENCODING 218
SWIDTH 690 0
DWIDTH 17 0
BBX 18 22 0 1
BITMAP
00000000000001C500
00000000000008F100
0000000000001F8000
0000000000007C0000
000000000410920000
00000038EC10000000
0247AEFE5000000000
DFFFFFF60000000001
02CFFFD008EDBBBC98
004FFF900014BFF200
001FFF7000000CC000
000FFF60000007B000
000FFF50000005A000
000EFF50000004A000
000DFF500000039000
000CFF700000038000
0009FF900000056000
0006FFC00000073000
0001EFF200000B0000
00006FF90000570000
000008FF8116B00000
0000003AEFD8100000
ENDCHAR
STARTCHAR Ucircumflex
ENCODING 219
SWIDTH 690 0
DWIDTH 17 0
BBX 18 23 0 1
BITMAP
000000000680000000
000000001EF6000000
00000000B59F600000
000000077009F91000
0000005800004C9000
000003600410000000
00000038EC10000000
0247AEFE5000000000
DFFFFFF60000000001
02CFFFD008EDBBBC98
004FFF900014BFF200
001FFF7000000CC000
000FFF60000007B000
000FFF50000005A000
000EFF50000004A000
000DFF500000039000
000CFF700000038000
0009FF900000056000
0006FFC00000073000
0001EFF200000B0000
00006FF90000570000
000008FF8116B00000
0000003AEFD8100000
ENDCHAR
STARTCHAR Udieresis
ENCODING 220
SWIDTH 690 0
DWIDTH 17 0
BBX 18 23 0 1
BITMAP
0000002CE50AE40000
0000006FFA0FF80000
0000002DE40BE30000
000000000000000000
000000000000000000
000000000410000000
00000038EC10000000
0247AEFE5000000000
DFFFFFF60000000001
02CFFFD008EDBBBC98
004FFF900014BFF200
001FFF7000000CC000
000FFF60000007B000
000FFF50000005A000
000EFF50000004A000
000DFF500000039000
000CFF700000038000
0009FF900000056000
0006FFC00000073000
0001EFF200000B0000
00006FF90000570000
000008FF8116B00000
0000003AEFD8100000
ENDCHAR
STARTCHAR Yacute
ENCODING 221
SWIDTH 796 0
DWIDTH 19 0
BBX 22 29 0 -3
BITMAP
00000000000001C4000000
00000000000009E1000000
0000000000002F70000000
0000000000008C00000000
000000000000A100000000
0000000120000000000000
001247BD50000000000000
9FFFFF800000004C742000
028FFF6000000005EFFFF3
0005FFE200000001D71000
00006FFD10000009500000
000008FFC1000078000000
000000AFFB1005B0000000
0000001DFFC15D10000000
00000003FFFFF400000000
000000007FFF9000000000
000000000DFF3000000000
0000000008FF1000000000
0000000006FF1000000000
0000000005FF1000000000
0000000005FF1000000000
0000000006FF2000000000
0000000007FF3000000000
0000000009FF4000000000
000000000BFF5000000000
000000000EFF7000000000
000000029FFFA000000000
000004EFFFFFF500000000
0000000001359D70000000
ENDCHAR
STARTCHAR Thorn
ENCODING 222
SWIDTH 479 0
DWIDTH 12 0
BBX 12 25 0 -2
BITMAP
010000000000
2FFFFFF40000
029FF9100000
002FF2000000
000FF0000000
000FF4100000
001FFFFEC710
001FF406FFC1
001FB0008FF8
002FA0003FFD
002F90001FFF
002FA0002FFD
003FB0007FF9
003FC105EFD1
004FEBEFD910
004FC0000000
005FC0000000
006FC0000000
007FC0000000
007FC0000000
008FC0000000
00AFE0000000
04FFF4000000
2EFFFF910000
121013510000
ENDCHAR
STARTCHAR germandbls
ENCODING 223
SWIDTH 591 0
DWIDTH 14 0
BBX 15 26 -1 -3
BITMAP
0019EFC500000000
00C812BF70000000
05C0001FE1000000
0A80000BF4000000
0B700009F5000000
0D70000AF4000000
0D90000CE0000000
0CB0002F60000000
0BE000A800000000
09F1065000000000
07F59EFEC9400000
05F80139FFFC2000
03FC00002DFFE200
01FF100001DFFB00
00DF4000003FFF30
00AF9000000AFF80
008FD0000003FFB0
005FF2000000CFC0
002FF70000008FC0
000EFB0000006FA0
000CFF14E6004F70
000BFF69FE106F20
000DFFB7FF81C600
009FB7319EEB4000
0AA2000000000000
5400000000000000
ENDCHAR
STARTCHAR agrave
ENCODING 224
SWIDTH 527 0
DWIDTH 13 0
BBX 14 23 0 -2
BITMAP
2E600000000000
1EF40000000000
04ED1000000000
004E7000000000
0003B000000000
00000000000000
0009EEB4000000
00A713DF400000
03D0005FD00000
06E3002FF40000
06FE500EF80000
03FFE00DFB0000
008E900BFE0000
00000009FF1000
005BEFEEFF4000
0AF92018FF6000
5FC00004FF9000
9FA00002FFB000
8FE5115BEFE001
3FFFFFE4CFF226
04CFEA207FF846
000000002EFFF3
0000000004DE80
ENDCHAR
STARTCHAR aacute
ENCODING 225
SWIDTH 527 0
DWIDTH 13 0
BBX 14 23 0 -2
BITMAP
0000000A700000
0000006F300000
000000DA000000
000005E1000000
00000830000000
00000000000000
0009EEB4000000
00A713DF400000
03D0005FD00000
06E3002FF40000
06FE500EF80000
03FFE00DFB0000
008E900BFE0000
00000009FF1000
005BEFEEFF4000
0AF92018FF6000
5FC00004FF9000
9FA00002FFB000
8FE5115BEFE001
3FFFFFE4CFF226
04CFEA207FF846
000000002EFFF3
0000000004DE80
ENDCHAR
STARTCHAR acircumflex
ENCODING 226
SWIDTH 527 0
DWIDTH 13 0
BBX 14 22 0 -2
BITMAP
00000A40000000
00005FE2000000
0002C3DD300000
000B301CE60000
009400007D4000
0649EEB4000000
00A713DF400000
03D0005FD00000
06E3002FF40000
06FE500EF80000
03FFE00DFB0000
008E900BFE0000
00000009FF1000
005BEFEEFF4000
0AF92018FF6000
5FC00004FF9000
9FA00002FFB000
8FE5115BEFE001
3FFFFFE4CFF226
04CFEA207FF846
000000002EFFF3
0000000004DE80
ENDCHAR
STARTCHAR atilde
ENCODING 227
SWIDTH 527 0
DWIDTH 13 0
BBX 14 21 0 -2
BITMAP
0009EB20000000
00535FE6164000
005005FFFF2000
0000004CE70000
0009EEB4000000
00A713DF400000
03D0005FD00000
06E3002FF40000
06FE500EF80000
03FFE00DFB0000
008E900BFE0000
00000009FF1000
005BEFEEFF4000
0AF92018FF6000
5FC00004FF9000
9FA00002FFB000
8FE5115BEFE001
3FFFFFE4CFF226
04CFEA207FF846
000000002EFFF3
0000000004DE80
ENDCHAR
STARTCHAR adieresis
ENCODING 228
SWIDTH 527 0
DWIDTH 13 0
BBX 14 21 0 -2
BITMAP
003EA000000000
009FE3EA000000
005E83E9000000
00000000000000
0009EEB4000000
00A713DF400000
03D0005FD00000
06E3002FF40000
06FE500EF80000
03FFE00DFB0000
008E900BFE0000
00000009FF1000
005BEFEEFF4000
0AF92018FF6000
5FC00004FF9000
9FA00002FFB000
8FE5115BEFE001
3FFFFFE4CFF226
04CFEA207FF846
000000002EFFF3
0000000004DE80
ENDCHAR
STARTCHAR aring
ENCODING 229
SWIDTH 527 0
DWIDTH 13 0
BBX 14 24 0 -2
BITMAP
00009ED7000000
0007912B400000
000C2005800000
000D912B700000
0009FFFF300000
0001AED5000000
00000000000000
0009EEB4000000
00A713DF400000
03D0005FD00000
06E3002FF40000
06FE500EF80000
03FFE00DFB0000
008E900BFE0000
00000009FF1000
005BEFEEFF4000
0AF92018FF6000
5FC00004FF9000
9FA00002FFB000
8FE5115BEFE001
3FFFFFE4CFF226
04CFEA207FF846
000000002EFFF3
0000000004DE80
ENDCHAR
STARTCHAR ae
ENCODING 230
SWIDTH 700 0
DWIDTH 17 0
BBX 17 16 0 -2
BITMAP
00000000007DEC5000
0000000006314EF400
01AED400500008FB00
0A915F34400007FB00
0F700AAA00000AF900
1FF307EC00004FF300
0AE308FB0138FF6000
0005CFFFEFEC920000
01BC35FD0000000000
0BE101FF2000000710
4F7000FF7000000650
8F4000FFD100000760
9F4004DFFA00000D40
7FB13D4DFFB412AD00
2EFFFB03EFFFFFF400
04CEA1003ADFEA3000
ENDCHAR
STARTCHAR ccedilla
ENCODING 231
SWIDTH 437 0
DWIDTH 11 0
BBX 11 20 0 -5
BITMAP
0003AEEC4000
006A13FFF300
04E100DFF800
0D9000BFF700
4F60004EC100
7F5000000000
9F6000006400
9F8000001C00
7FD000000C10
3FF700001E10
0CFF8203BB00
02DFFFFFE200
0019DFD92000
000009000000
00001E810000
00002EFE1000
000001CF7000
0003007F7000
000A31CF2000
0002BED50000
ENDCHAR
STARTCHAR egrave
ENCODING 232
SWIDTH 434 0
DWIDTH 10 0
BBX 11 20 0 1
BITMAP
05E400000000
03FE20000000
006FB0000000
0006F5000000
00005A000000
000000000000
000000000000
00039DEC5000
006FB21BF700
04FE1003FE00
0DF90002FF10
4FF50004FE00
7FF3000AF900
8FF4029FD100
9FFDEFC72800
7FF500000C00
3FF800000C00
0BFE20001C00
01CFD412B400
0017CEEB4000
ENDCHAR
STARTCHAR eacute
ENCODING 233
SWIDTH 434 0
DWIDTH 10 0
BBX 11 19 0 1
BITMAP
0000000B5000
0000008F2000
000001E80000
000006D10000
000009200000
000000000000
00039DEC5000
006FB21BF700
04FE1003FE00
0DF90002FF10
4FF50004FE00
7FF3000AF900
8FF4029FD100
9FFDEFC72800
7FF500000C00
3FF800000C00
0BFE20001C00
01CFD412B400
0017CEEB4000
ENDCHAR
STARTCHAR ecircumflex
ENCODING 234
SWIDTH 434 0
DWIDTH 10 0
BBX 11 20 0 1
BITMAP
00001C200000
00008FC10000
0003C4EC2000
001B203DE400
00A200018E20
072000000000
000000000000
00039DEC5000
006FB21BF700
04FE1003FE00
0DF90002FF10
4FF50004FE00
7FF3000AF900
8FF4029FD100
9FFDEFC72800
7FF500000C00
3FF800000C00
0BFE20001C00
01CFD412B400
0017CEEB4000
ENDCHAR
STARTCHAR edieresis
ENCODING 235
SWIDTH 434 0
DWIDTH 10 0
BBX 11 18 0 1
BITMAP
0007E5000000
000EF97E5000
000AE48E4000
000000000000
000000000000
00039DEC5000
006FB21BF700
04FE1003FE00
0DF90002FF10
4FF50004FE00
7FF3000AF900
8FF4029FD100
9FFDEFC72800
7FF500000C00
3FF800000C00
0BFE20001C00
01CFD412B400
0017CEEB4000
ENDCHAR
STARTCHAR igrave
ENCODING 236
SWIDTH 301 0
DWIDTH 7 0
BBX 8 20 -1 2
BITMAP
BA000000
9F900000
1CF40000
01CD0000
001A4000
00000000
00000000
00125A70
08FFFF60
002EFF40
000AFF20
0009FF00
0009FE00
0009FD00
0009FB00
0009FA00
000AF900
000BF900
002EFD30
07FDDEFB
ENDCHAR
STARTCHAR iacute
ENCODING 237
SWIDTH 301 0
DWIDTH 7 0
BBX 7 19 0 2
BITMAP
00004D00
0001EA00
0007F200
000D7000
00290000
00000000
0125A700
8FFFF600
02EFF400
00AFF200
009FF000
009FE000
009FD000
009FB000
009FA000
00AF9000
00BF9000
02EFD300
7FDDEFB0
ENDCHAR
STARTCHAR icircumflex
ENCODING 238
SWIDTH 301 0
DWIDTH 7 0
BBX 10 19 -1 2
BITMAP
0001C20000
0008FC1000
003C4EC200
01B203DE40
0A200018E2
7200000000
00125A7000
08FFFF6000
002EFF4000
000AFF2000
0009FF0000
0009FE0000
0009FD0000
0009FB0000
0009FA0000
000AF90000
000BF90000
002EFD3000
07FDDEFB00
ENDCHAR
STARTCHAR idieresis
ENCODING 239
SWIDTH 301 0
DWIDTH 7 0
BBX 7 18 0 2
BITMAP
07E50000
0EF97E60
09E47E50
00000000
00000000
0125A700
8FFFF600
02EFF400
00AFF200
009FF000
009FE000
009FD000
009FB000
009FA000
00AF9000
00BF9000
02EFD300
7FDDEFB0
ENDCHAR
STARTCHAR eth
ENCODING 240
SWIDTH 476 0
DWIDTH 11 0
BBX 13 22 -2 -2
BITMAP
00000000070000
00000000720000
004ADFD9800000
1AA4214EE50000
94000063AF5000
000001701DE100
0000071007F800
0000010002FE00
0000000000DF40
0000000000BF80
0000000000AFA0
000006CFD9BFD0
00008FA12AFFE0
0003FE1000CFF0
0009FB00006FF0
000BFA00001FF0
000CFB00000EE0
000AFD00000DB0
0006FF40000D80
0001DFB0002F20
00003EF912B800
0000029DFD6000
ENDCHAR
STARTCHAR ntilde
ENCODING 241
SWIDTH 584 0
DWIDTH 14 0
BBX 14 20 0 0
BITMAP
000002CE800000
00000829FD4190
00000500AFFFB0
0000000008ED30
00022000000000
001C6000000000
00AF8002CFD500
2CFFA02EFFFF30
41BFC0A318FFA0
006FE44000DFD0
002FF900009FE0
000EFA00008FE0
000AF800007FC0
0007F800008FB0
0005F800008F90
0002F90000AF70
0001FB0003EF60
0002FF23FFFF60
01DFFFE3137DC1
0021013200006A
ENDCHAR
STARTCHAR ograve
ENCODING 242
SWIDTH 400 0
DWIDTH 10 0
BBX 17 20 0 4
BITMAP
0000000000000BE600
0000000000002FFE00
0000000000000AFF10
000000000000009F00
1E8000000000004B00
0DF600000000006600
02EE2000000000A000
003EA0000000055000
0002C1000000380000
000000000005A00000
0000000026B7000000
005D8DEEC710000000
08FD13FC1000000000
3FF400BFB000000000
8FD0008FF300000000
AFB0007FF500000000
9FA0008FF300000000
5FD000CFD000000000
0CF717FE3000000000
018DFEA20000000000
ENDCHAR
STARTCHAR oacute
ENCODING 243
SWIDTH 400 0
DWIDTH 10 0
BBX 17 20 0 4
BITMAP
0000000000000BE600
0000000000002FFE00
0000000000000AFF10
000000000000009F00
0000000B5000004B00
0000008F2000006600
000001F8000000A000
000007C10000055000
000009200000380000
000000000005A00000
0000000026B7000000
005D8DEEC710000000
08FD13FC1000000000
3FF400BFB000000000
8FD0008FF300000000
AFB0007FF500000000
9FA0008FF300000000
5FD000CFD000000000
0CF717FE3000000000
018DFEA20000000000
ENDCHAR
STARTCHAR ocircumflex
ENCODING 244
SWIDTH 400 0
DWIDTH 10 0
BBX 17 20 0 4
BITMAP
0000000000000BE600
0000000000002FFE00
0000000000000AFF10
000000000000009F00
00003B000000004B00
0000CF900000006600
000786F9000000A000
003A005FC200055000
02A10003AC00380000
181000000005A00000
0000000026B7000000
005D8DEEC710000000
08FD13FC1000000000
3FF400BFB000000000
8FD0008FF300000000
AFB0007FF500000000
9FA0008FF300000000
5FD000CFD000000000
0CF717FE3000000000
018DFEA20000000000
ENDCHAR
STARTCHAR otilde
ENCODING 245
SWIDTH 400 0
DWIDTH 10 0
BBX 17 20 0 4
BITMAP
0000000000000BE600
0000000000002FFE00
0000000000000AFF10
000000000000009F00
000000000000004B00
000000000000006600
000AEA10000000A000
00627FE61820055000
005007FFFE10380000
0000005DE505A00000
0000000026B7000000
005D8DEEC710000000
08FD13FC1000000000
3FF400BFB000000000
8FD0008FF300000000
AFB0007FF500000000
9FA0008FF300000000
5FD000CFD000000000
0CF717FE3000000000
018DFEA20000000000
ENDCHAR
STARTCHAR odieresis
ENCODING 246
SWIDTH 400 0
DWIDTH 10 0
BBX 17 20 0 4
BITMAP
0000000000000BE600
0000000000002FFE00
0000000000000AFF10
000000000000009F00
000000000000004B00
000000000000006600
000BD100000000A000
004FF4BE2000055000
001DC1CD1000380000
000000000005A00000
0000000026B7000000
005D8DEEC710000000
08FD13FC1000000000
3FF400BFB000000000
8FD0008FF300000000
AFB0007FF500000000
9FA0008FF300000000
5FD000CFD000000000
0CF717FE3000000000
018DFEA20000000000
ENDCHAR
STARTCHAR divide
ENCODING 247
SWIDTH 592 0
DWIDTH 14 0
BBX 12 10 1 2
BITMAP
00007EA00000
00007FA00000
000000000000
000000000000
000000001111
AFFEEDDDDDDC
000000000000
00004EA00000
00009FF00000
00005E800000
ENDCHAR
STARTCHAR oslash
ENCODING 248
SWIDTH 396 0
DWIDTH 10 0
BBX 10 15 0 0
BITMAP
0000073000
00000C1000
006CFFA300
09F74CFE30
4FC0759FB0
8F70B16FF0
AF62B05FF1
9F77707FE0
5FAC20CF90
0CFD17FD10
01AFFD8100
0087000000
00C3000000
01D0000000
0140000000
ENDCHAR
STARTCHAR ugrave
ENCODING 249
SWIDTH 744 0
DWIDTH 18 0
BBX 18 19 0 0
BITMAP
00000BA00000000000
000009F90000000000
000001CF4000000000
0000001CD000000000
00000001A400000000
000000000000000000
0000910000149B0000
0007F3003EEFFE0000
03BFF5000007FF0000
7CBFF8000002FF1000
000CFA000001FF2000
0008FD000001FF4000
0006FF100002FF6000
0004FF400004CF8000
0002FF9000077FC000
0000DFE100094FFEDB
00008FFB21A4197420
00001DFFFFA0000000
000002AEE910000000
ENDCHAR
STARTCHAR uacute
ENCODING 250
SWIDTH 744 0
DWIDTH 18 0
BBX 18 19 0 0
BITMAP
000000000890000000
000000004F50000000
00000000CC00000000
00000003E300000000
000000065000000000
000000000000000000
0000910000149B0000
0007F3003EEFFE0000
03BFF5000007FF0000
7CBFF8000002FF1000
000CFA000001FF2000
0008FD000001FF4000
0006FF100002FF6000
0004FF400004CF8000
0002FF9000077FC000
0000DFE100094FFEDB
00008FFB21A4197420
00001DFFFFA0000000
000002AEE910000000
ENDCHAR
STARTCHAR ucircumflex
ENCODING 251
SWIDTH 744 0
DWIDTH 18 0
BBX 18 19 0 0
BITMAP
0000000B2000000000
0000007FD100000000
000003C3ED20000000
00001B202DE4000000
0000A300018E200000
000720000000000000
0000910000149B0000
0007F3003EEFFE0000
03BFF5000007FF0000
7CBFF8000002FF1000
000CFA000001FF2000
0008FD000001FF4000
0006FF100002FF6000
0004FF400004CF8000
0002FF9000077FC000
0000DFE100094FFEDB
00008FFB21A4197420
00001DFFFFA0000000
000002AEE910000000
ENDCHAR
STARTCHAR udieresis
ENCODING 252
SWIDTH 744 0
DWIDTH 18 0
BBX 18 18 0 0
BITMAP
000000AE2000000000
000002FF6AE3000000
000000CD1BE2000000
000000000000000000
000000000000000000
0000910000149B0000
0007F3003EEFFE0000
03BFF5000007FF0000
7CBFF8000002FF1000
000CFA000001FF2000
0008FD000001FF4000
0006FF100002FF6000
0004FF400004CF8000
0002FF9000077FC000
0000DFE100094FFEDB
00008FFB21A4197420
00001DFFFFA0000000
000002AEE910000000
ENDCHAR
STARTCHAR yacute
ENCODING 253
SWIDTH 659 0
DWIDTH 16 0
BBX 16 28 0 -11
BITMAP
00000000004D0000
0000000001E90000
0000000008E20000
000000000D600000
000004C138000000
0002AE5000000144
04AFF3001EEDEFE4
8EFFE000016FFF70
01FFE000000BFF40
00CFF0000009FF30
009FF3000009FF20
006FF600000BFF10
002FFB00000EFE00
000CFF30005EFD00
0005FFD404D8FB00
0000AFFFFF67F900
000007DFC508F600
000000000009F300
00000000000BF000
00000000000DB000
00000000000F7000
00000000003F3000
0002BEC2007C0000
000DFFF800D60000
00384DE406D00000
004500003E400000
001C4116E6000000
0002BEEA30000000
ENDCHAR
STARTCHAR thorn
ENCODING 254
SWIDTH 514 0
DWIDTH 12 0
BBX 14 35 -2 -15
BITMAP
00004A60000000
027DFB10000000
2EEFF300000000
001FF200000000
000DF300000000
000CF400000000
000AF500000000
0009F600000000
0008F78DFC7000
0007FF714EFB10
0006FD0005FF90
0005FB0000DFF2
0004FB00009FF7
0004FC00007FFA
0003FC00006FFC
0003FD00006FFD
0002FF00007FFC
0002FF20009FF9
0002FF6001EFF4
0002FFB21AFFA0
0002FF58DFD700
0001FF50000000
0001FF60000000
0001FF70000000
0001FF80000000
0001FF90000000
0001FFA0000000
0002FFB0000000
0002FFC0000000
0002FFD0000000
0003FFE0000000
0004FFF0000000
001AFFF2000000
05FEFFFC510000
00000147BE1000
ENDCHAR
STARTCHAR ydieresis
ENCODING 255
SWIDTH 659 0
DWIDTH 16 0
BBX 16 29 0 -11
BITMAP
0000001CD1000000
0000004FF4CD1000
0000001DC1DD1000
0000000000000000
0000000000000000
000004C100000000
0002AE5000000144
04AFF3001EEDEFE4
8EFFE000016FFF70
01FFE000000BFF40
00CFF0000009FF30
009FF3000009FF20
006FF600000BFF10
002FFB00000EFE00
000CFF30005EFD00
0005FFD404D8FB00
0000AFFFFF67F900
000007DFC508F600
000000000009F300
00000000000BF000
00000000000DB000
00000000000F7000
00000000003F3000
0002BEC2007C0000
000DFFF800D60000
00384DE406D00000
004500003E400000
001C4116E6000000
0002BEEA30000000
ENDCHAR
STARTCHAR dotlessi
ENCODING 305
SWIDTH 301 0
DWIDTH 7 0
BBX 7 13 0 2
BITMAP
0125A700
8FFFF600
02EFF400
00AFF200
009FF000
009FE000
009FD000
009FB000
009FA000
00AF9000
00BF9000
02EFD300
7FDDEFB0
ENDCHAR
STARTCHAR OE
ENCODING 338
SWIDTH 1132 0
DWIDTH 27 0
BBX 28 25 0 -5
BITMAP
0000000000000000000000184000
0000000000000000000149FF4000
000016ADEEC721CFFFFFDA9E4000
0004DE72015CF71EFF7200065000
005FE20000008FAAFE0000027000
03FF5000000009FEFF0000006000
0CFC0000000001DFFF1000000000
4FF800000000006FFF1000000000
9FF700000000001FFF2000000000
CFF700000000000CFF3000240000
DFF900000000000AFF4000720000
CFFB000000000008FF6138F10000
BFFF100000000008FFFDABF00000
7FFF70000000000AFF9000B10000
3FFFE1000000000DFF8000530000
0BFFFB000000005FFF9000110000
02EFFFA1000002EFFFA000000032
004EFFFE61027EC8FFB000000072
0003CFFFFFFFFA16FFD0000000C0
0000049DEED93006FFE0000003F0
0000000000000006FFF000001CF0
0000000000000007FFF21259EFF0
000000000000002DFFFFFFFFFFF1
00000000000017EC963110011220
0000000000003510000000000000
ENDCHAR
STARTCHAR oe
ENCODING 339
SWIDTH 798 0
DWIDTH 19 0
BBX 19 12 0 1
BITMAP
003AEFC500007DEC4000
04E813DFA01BF519E200
0DD0002EF88F8002F700
5FB00007FFFF2001F800
9FB00001FFFF0006F500
9FE00000BFFE205EB000
8FF200009FFFDFD81650
4FF800008FFF200001B0
0CFE2000BBFF600000B0
02DFD316D19FD1000380
0018DFEA201BFC314B10
0000000000006CFE8100
ENDCHAR
STARTCHAR circumflex
ENCODING 710
SWIDTH 483 0
DWIDTH 12 0
BBX 10 6 1 15
BITMAP
0000A40000
0005FE2000
001C3DE300
00A301CE60
09400007D4
5400000000
ENDCHAR
STARTCHAR caron
ENCODING 711
SWIDTH 428 0
DWIDTH 10 0
BBX 8 7 1 16
BITMAP
00000003
61000056
4D200580
06E45B00
00AFF200
002F9000
000A2000
ENDCHAR
STARTCHAR ring
ENCODING 730
SWIDTH 330 0
DWIDTH 8 0
BBX 6 6 1 20
BITMAP
07ED80
6B11A6
A4003A
BA11A9
7FFFF4
09ED70
ENDCHAR
STARTCHAR tilde
ENCODING 732
SWIDTH 433 0
DWIDTH 10 0
BBX 9 4 1 17
BITMAP
0BEA100000
627FE51820
5007FFFE00
00006DE500
ENDCHAR
STARTCHAR mu.dup1
ENCODING 956
SWIDTH 634 0
DWIDTH 15 0
BBX 15 22 1 -8
BITMAP
0110000000000000
EF30000014000000
FF200008EE000000
FF100008FF000000
FF200004FF200000
EF300001FF300000
EF500000EF400000
EF800000DF606400
DFD00000FF800A00
CFF60004EFC00920
CF8E513C4FF61C20
CF73CFC40AFFFE00
BF800000019ED400
BF90000000000000
AFB0000000000000
AFC0000000000000
9FE0000000000000
9FF1000000000000
8FF3000000000000
7FF5000000000000
6FF6000000000000
1200000000000000
ENDCHAR
STARTCHAR endash
ENCODING 8211
SWIDTH 436 0
DWIDTH 10 0
BBX 9 2 1 5
BITMAP
3310012300
6BDFFFEC20
ENDCHAR
STARTCHAR emdash
ENCODING 8212
SWIDTH 651 0
DWIDTH 16 0
BBX 14 2 1 5
BITMAP
0235689BCDEFE4
6A987654322100
ENDCHAR
STARTCHAR quoteleft
ENCODING 8216
SWIDTH 287 0
DWIDTH 7 0
BBX 5 8 1 12
BITMAP
003940
03E200
1DD000
6FF200
AFFC00
BFFF20
9FFF20
2CE800
ENDCHAR
STARTCHAR quoteright
ENCODING 8217
SWIDTH 291 0
DWIDTH 7 0
BBX 5 8 1 11
BITMAP
4DE800
BFFF60
9FFFB0
1BFFC0
008FA0
000E50
005B00
059100
ENDCHAR
STARTCHAR quotesinglbase
ENCODING 8218
SWIDTH 272 0
DWIDTH 7 0
BBX 5 8 1 -4
BITMAP
3DE800
AFFF30
8FFF50
1AFF30
009D00
008700
01C100
063000
ENDCHAR
STARTCHAR quotedblleft
ENCODING 8220
SWIDTH 445 0
DWIDTH 11 0
BBX 9 9 1 10
BITMAP
0005900000
007A002900
05E100D200
1EB006E000
7FE00BF500
BFF70DFF30
BFFE0CFF70
9FFF14DD20
2CE7000000
ENDCHAR
STARTCHAR quotedblright
ENCODING 8221
SWIDTH 444 0
DWIDTH 11 0
BBX 9 9 1 11
BITMAP
4ED4000000
BFFE09EA00
8FFF4FFF50
1BFF2FFF70
00DC07FF50
00B600DD00
03C000E500
09200A6000
0001940000
ENDCHAR
STARTCHAR quotedblbase
ENCODING 8222
SWIDTH 482 0
DWIDTH 12 0
BBX 10 9 1 -6
BITMAP
3CE9000000
AFFF61BEA0
9FFF96FFF4
2DFFA5FFF5
01BF70AFF2
003F300EB0
006A001F30
00A100A800
0000058000
ENDCHAR
STARTCHAR bullet
ENCODING 8226
SWIDTH 351 0
DWIDTH 8 0
BBX 7 6 1 7
BITMAP
06DEB200
5FFFFC00
BFFFFF20
BFFFFF20
7FFFFC00
08EEA200
ENDCHAR
STARTCHAR guilsinglleft
ENCODING 8249
SWIDTH 465 0
DWIDTH 11 0
BBX 9 15 1 -2
BITMAP
0000004400
000000B000
0000087000
00004E1000
0003E70000
004ED00000
07FF500000
9FFF700000
19FFE20000
004EFC0000
0002CF8000
00001CF300
000001CD00
0000001B70
0000000190
ENDCHAR
STARTCHAR guilsinglright
ENCODING 8250
SWIDTH 449 0
DWIDTH 11 0
BBX 9 16 1 -3
BITMAP
0800000000
0A60000000
04E3000000
00AE300000
002EE40000
0006FF9100
0000EFFE40
0005FFE600
001DFD3000
008FD10000
02FD100000
09F3000000
1E70000000
6C00000000
A300000000
2000000000
ENDCHAR
STARTCHAR fraction
ENCODING 8260
SWIDTH 406 0
DWIDTH 10 0
BBX 17 24 -4 -1
BITMAP
000000000000000020
000000000000000750
000000000000003C00
00000000000001D300
0000000000000A8000
0000000000006C0000
000000000002E30000
00000000000C600000
00000000008B000000
0000000004E1000000
000000001E40000000
00000000B800000000
00000007C000000000
0000003E2000000000
000001D50000000000
000009900000000000
00005D100000000000
0001D3000000000000
000A70000000000000
006B00000000000000
02D100000000000000
0C4000000000000000
580000000000000000
100000000000000000
ENDCHAR
STARTCHAR foursuperior
ENCODING 8308
SWIDTH 473 0
DWIDTH 11 0
BBX 11 15 0 7
BITMAP
000007100000
00001E300000
00007F400000
0001EF600000
0007AF800000
00194FA00300
00822FC04500
02901FE3D500
0B200EFFF700
4EABDFFFF600
24321BF70000
00000BFC0000
00000DFF9200
0005DFFEEFB0
000352000000
ENDCHAR
STARTCHAR Euro
ENCODING 8364
SWIDTH 799 0
DWIDTH 19 0
BBX 22 20 -1 -1
BITMAP
0000000000000000000091
00000000028CEFEA5004A0
000000019FF93115DDAE30
0000001CFE4000001DFC00
000000BFF500000005F800
000007FFA000000000E400
00001EFF4000000000B100
00006FFE00159300007000
0000BFFC59950000000000
0000EFFC51153000000000
029DFFF95AB50000000000
0242FFFE93000000000000
015AFFF900000000000000
1EE9EFFB00000000080000
01009FFE00000000180000
00004FFF60000000650000
00000BFFE2000001D10000
000001DFFE72025D800000
0000002CFFFFFFFA000000
000000006BEFEB50000000
ENDCHAR
STARTCHAR minus
ENCODING 8722
SWIDTH 436 0
DWIDTH 10 0
BBX 9 2 1 5
BITMAP
3310012300
6BDFFFEC20
ENDCHAR
STARTCHAR f_f
ENCODING 64256
SWIDTH 467 0
DWIDTH 11 0
BBX 15 36 0 -8
BITMAP
000004CEC3000000
00004FFFFC000000
0001D36FFD000000
0006802DE5000000
000B40003BEE9100
000F1003D41BF900
003D000C600AFE00
006C004E006FFF10
008B00AA01EFFF00
009A00D801FFFB00
00BA00F7008EC200
00BA02F600000000
00CB02F700000000
00CC02F723200000
00CD8BFFDC900000
19FE75FA00000000
12CE00FC00000000
00CF00DE00000000
00BF20CF10000000
00BF30AF40000000
00AF507F70000000
009F705FB0000000
008F902FE0000000
007FB00EF4000000
005FE00CF9000000
004FF109FE100000
003FF406FFA10000
001FF604FFFE5000
000FF807FA510000
000EFB3B30000000
000CFE0000000000
000BFF2000000000
000BFF7000000000
000CFFD000000000
017FFFFA10000000
3FECDEFFE6000000
ENDCHAR
STARTCHAR .notdef
ENCODING -1
SWIDTH 270 0
DWIDTH 6 0
BBX 6 15 0 0
BITMAP
1FFFF9
100001
100001
100001
100001
100001
100001
100001
100001
100001
100001
100001
100001
100001
1FFFF9
ENDCHAR
STARTCHAR .null
ENCODING -1
SWIDTH 0 0
DWIDTH 0 0
BBX 1 1 0 0
BITMAP
00
ENDCHAR
STARTCHAR nonmarkingreturn
ENCODING -1
SWIDTH 270 0
DWIDTH 6 0
BBX 1 1 0 0
BITMAP
00
ENDCHAR
STARTCHAR dieresis.case
ENCODING -1
SWIDTH 393 0
DWIDTH 9 0
BBX 8 3 1 18
BITMAP
5ED22DC1
BFF55FF3
6EC12EC0
ENDCHAR
STARTCHAR o.cmp
ENCODING -1
SWIDTH 400 0
DWIDTH 10 0
BBX 17 20 0 4
BITMAP
0000000000000BE600
0000000000002FFE00
0000000000000AFF10
000000000000009F00
000000000000004B00
000000000000006600
00000000000000A000
000000000000055000
000000000000380000
000000000005A00000
0000000026B7000000
005D8DEEC710000000
08FD13FC1000000000
3FF400BFB000000000
8FD0008FF300000000
AFB0007FF500000000
9FA0008FF300000000
5FD000CFD000000000
0CF717FE3000000000
018DFEA20000000000
ENDCHAR
STARTCHAR n_n
ENCODING -1
SWIDTH 1024 0
DWIDTH 25 0
BBX 25 16 0 -1
BITMAP
00065000000000000000000000
004F9004CED500000000000000
18FFB05FFFFF30000000000000
BAEFD1C319FFA026C300000000
008FF74000EFD6FFF34CEC4000
004FFC0000AFE04FF6618FE100
001FFA00008FE01FFA000FF700
000CF900007FD01FF6000DFA00
0008F800007FB02FF3000DFB00
0005F800008F902FF2000EFA00
0003F900009F703FF3001FF800
0001FB0000AF604FF7004FF500
0002FF2003EF54DFEC81BFF300
01DFFFE6FFFF845200AFFFF800
002101320016D6000000126930
00000000000017000000000000
ENDCHAR
STARTCHAR a_a
ENCODING -1
SWIDTH 911 0
DWIDTH 22 0
BBX 23 16 0 -2
BITMAP
0000000000008DFE91000000
00000000000BD314ED100000
00000000004FE1005F800000
008EEB20006FF8001FE00000
0AA12CD0001CE5000EF20000
2F7003F5000000000EF30000
4FF200E80029DFEA4FF40000
1CD200DA03EE6114AFF50000
000000EB0CF700002FF60000
005BEFFC1FF4EC003FF60000
0AFE51DD1FF64D104FF70000
5FF400DF1DFE4A26DFF70000
8FF001CF64FFFFFE6FF80000
5FF5172DE54CFEA20EFA0060
08EEC3029DFC400008FE3370
0000000000000000007DEA10
ENDCHAR
STARTCHAR t_h
ENCODING -1
SWIDTH 854 0
DWIDTH 21 0
BBX 22 30 -1 -4
BITMAP
0000000000189000000000
0000000148EFA000000000
000000BFFFFFA000000000
0000000004FF9000000000
0000000000BF8000000000
00000000009F7000000000
00000000009F6000000000
00000008209F5000000000
0000004D00AF4000000000
000004E900BF3000000000
00049FFB10CF3000000000
4CEFFFFFEFFFFC00000000
1310AFF200DF2000000000
00009FC000EF03AEEC7000
0000BFA001FE4C303DFA00
0000CF9002FEC10004FF50
0000EF8002FF700000EFA0
0000EF8003FF200000CFD0
0000DF8004FE00BE50BFE0
0000CF9006FD01FFA0BFD0
0000AFC007FB00AFA0CFC0
00005FF108FA002F60DFA0
00000CF909FA005E10FF70
000001CFBCFA27D302FF40
00000006BFFFD81005FF10
000000002FFE610008FE00
00000016DFFFFF501DFC00
000000BA52000003BFFE00
00000000000000CFFFFF90
00000000000000000038D6
ENDCHAR
STARTCHAR s_s
ENCODING -1
SWIDTH 654 0
DWIDTH 16 0
BBX 17 20 -1 -3
BITMAP
000000000150000400
000008DEBC10000A00
00007F61994BEEEA00
0000CF0055FD22C800
0000CF2017F7004800
00007FA007F8000800
00000DF804FD000000
000003EF90DF700000
0000004FF95FF30000
00000006FF6BFD1000
00300000AFE4FFA000
00B000002FF59FF400
01E002CE3CF72FFC00
06F209FF4CF50CFF20
0CD80CB32FE10AFF50
42098D13CF500AFF40
00006DFEA3000DFF10
0000048000004FFA00
0000008A3115EFC100
00000004BEFEB60000
ENDCHAR
STARTCHAR t_t
ENCODING -1
SWIDTH 569 0
DWIDTH 14 0
BBX 14 21 0 -2
BITMAP
0000001DF20000
0000083FF20000
0000695FF00000
0004F66FE15830
03AFF9CFFE6000
BFFFFEFFD10000
00AFF2BF800000
00AFD0BF600000
00BFB0BF500000
00CF90AF400000
00DF90AF500000
00DF808F600000
00DF806F704EC1
00CF902FB06FF8
00AFA00CF303A9
008FB002ED3195
003FE0002BEE70
000CF40005EC00
0004FB000CFF20
00006F913FFB00
0000039DFE9100
ENDCHAR
STARTCHAR e_e
ENCODING -1
SWIDTH 782 0
DWIDTH 19 0
BBX 19 14 0 0
BITMAP
002AEEA1002AEFB30000
04ED21D904EC21AE1000
1EF3008D1EF2001F7000
7FD0008D7FB0000D9000
BFA000B9BF80000CA000
DF9005F2EF70000E8000
DFB39E50FF70002F4000
CFFD8200EF80007E0000
8FF30000CFA000D60900
1EFA00009FE109B00840
06FF80003FF78B100650
005EFC510BFFA0000930
00017BEFECDFE6116A00
000000000006BEFE8100
ENDCHAR
STARTCHAR o_o
ENCODING -1
SWIDTH 751 0
DWIDTH 18 0
BBX 25 21 0 2
BITMAP
0000000000000000000006EB10
000000000000000000000BFF60
0000000000000000000004EF70
00000000000000000000004F60
00000000000000000000000D20
00000000000000000000000C00
00000000000000000000005600
0000000000000000000001B000
000000000000000000000A3000
00000000000000000003C50000
0006CEEB5000000025AC300000
01CF9215F86D76FFEA50000000
0AFB00007FF6009F5000000000
3FF300005FA0002FF200000000
7FE00000CFD0000DF800000000
9FC00000EFD0000DF800000000
8FC00000DFA0003FF500000000
6FE00000AFC304DFA000000000
1EF40002EB9DFDB50000000000
04FD413CC10000000000000000
0029DFD8100000000000000000
ENDCHAR
STARTCHAR l_l
ENCODING -1
SWIDTH 573 0
DWIDTH 14 0
BBX 16 24 -2 -3
BITMAP
000009400004A000
0001AF5026CFC000
005DFF46EFFFC000
0787FF4006FFC000
0003FF4002FFC000
0003FF4001FFC000
0002FF5000FFC000
0002FF5000EFC000
0002FF5000DFC000
0002FF5000CFC000
0002FF6000BFD000
0001FF6000BFD000
0002FF6000AFE000
0002FF7000AFF000
0002FF7000AFF200
0002FF70009FF300
0003FF80009FF600
0003FF80009FF800
0004FF9000CFFE40
0004FFA05BEDDEFB
0007FFC010000000
2EEFFFF100000000
00258DFB10000000
00000039B0000000
ENDCHAR
STARTCHAR z_z
ENCODING -1
SWIDTH 875 0
DWIDTH 21 0
BBX 23 16 -1 -2
BITMAP
0000000B831025B600000000
0000000DFFFFFFF200000000
006D841700015FB000000000
006302BFFFB08F5000000000
004000CFFE21EE0000000000
000005FFF408F80000000000
00000DFF801EF20000000000
00006FFC009FC00000000000
0001EFF302FF600070000000
0007FF700AFF1000B0000000
001EFB003FFB0016F009EA00
009FE2009FFFFFFFF11FFF30
03FF600000000000000BFF20
0BFEADEFDB8400000005FC00
4C84201369DFEA63102AE300
00000000000159CEFEC71000
ENDCHAR
STARTCHAR j_j
ENCODING -1
SWIDTH 577 0
DWIDTH 14 0
BBX 17 33 -3 -15
BITMAP
0000000000BE700000
0000000004FFE00000
0000002DD6FFE00000
0000006FF6BE600000
0000002DD115990000
0000000009FFFF3000
00012001473EFF8000
00028EFFFF55FFC000
000001AFFF80DFF100
0000000CFFB07FF400
00000004FFD02FF700
00000000EFF00CFA00
00000000AFF109FC00
000000006FF205FE00
000000004FF303FF10
000000001FF401FF20
000000000EF400DF30
000000000DF400CF40
000000000DF400AF40
000000000CF3009F50
000000000CF2007F50
000000000CF1007F50
03BEC1000DD0006F40
1EFFF6000FA0006F30
7FFFE3003F60007F20
AFA510006F10007F00
9B000000C900009C00
6C000007E20000A800
0C92028E400000C400
018DFE94DD2001D000
00000007FFA0055000
00000005FFF4260000
000000008EEC600000
ENDCHAR
STARTCHAR f_b
ENCODING -1
SWIDTH 731 0
DWIDTH 18 0
BBX 20 32 -2 -5
BITMAP
00000001AEEA10000000
0000001D612CB0000000
000000880006F2000000
000001E2000AF4000000
000005C004CFF4000000
000009A04FFFF1000000
00000D806FFF90000000
00001F701AC856000000
00003F70015BF8000000
00006F804FFFF9000000
0001CFE67AAFF9000000
17AEFFE5200BF9000000
0433CFA00008F9000000
00009FA00007F9000000
00009FB00006F8000000
00009FB00006F8000000
00009FC00005F8000000
00009FC00005F8000000
00008FD00005F8000000
00008FD00005FAAEEB20
00008FE00005FE31CFD1
00008FE00005F9006FF6
00008FE00005F6004FF8
00008FF00005F6005FF8
00008FF00006F6008FF5
00008FF1000AFC13EFC0
00008FF2008FFFFFFA10
00008FF4069311220000
0000AFFA000000000000
0001EFFFEC2000000000
005C8420000000000000
00300000000000000000
ENDCHAR
STARTCHAR f_k
ENCODING -1
SWIDTH 708 0
DWIDTH 17 0
BBX 17 29 0 -4
BITMAP
000000030000000000
0000008C0000000000
00004BFB0000000000
02AEFFFEEEA2000000
00112EFB06FD000000
00007EFB07FF400000
0001E6FB3FFF500000
0007C2FC6FFF200000
000C82FC1CE7000000
001F51FD0000000000
004F41FD0000000000
007F31FE0000000000
19EF20FE02A5200000
13AF10FF000CFDA100
00AF10FF100C600000
00BF10FF1094000000
00BF10EF2890000000
00BF00EFAFA0000000
00CF00EFDFE0001000
00CF00DF5EF5001810
00CF00DF69FC000370
00CF10DF73FF6001B0
00CF10DF80AFF617B0
00EF20DFA01DFFFF60
03FF30DFB0019EE800
4FFFA1FFE000000000
00025AFFF844000000
0008DFFFFFFF300000
000542100122000000
ENDCHAR
STARTCHAR f_h
ENCODING -1
SWIDTH 873 0
DWIDTH 21 0
BBX 23 31 -2 -4
BITMAP
00000001AEEA100000000000
0000001C612CB00000000000
000000880006F30000000000
000001E1002CF40000000000
000005C01AFFF30000000000
000009907FFFC18000000000
00000D803EFC4DA000000000
00000F700039FF8000000000
00003F701BFFFF6000000000
00005FA00311EF4000000000
0000BFFCCB40BF3000000000
069DFFE50000AF2000000000
1655DFA00000BF1000000000
0000AFA00000BF0000000000
00009FB00000CE0000000000
00009FB00000DE0000000000
00009FC00000ED0000000000
00009FC00000FD04CFD60000
00008FD00001FD4716FF5000
00008FD00002FD9000CFB000
00008FE00003FF5000AFE000
00008FE00005FF10009FF000
00008FF00006FD00009FF000
00008FF00007FB00009FF000
00008FF10009FA0000AFF000
00008FF2000CF90000BFF300
00008FF3005FFB0005FFFFB0
00009FF95FFFFF9027410230
0001DFFFED30257200000000
005B94200000000000000000
003000000000000000000000
ENDCHAR
ENDFONT
